<svg width="124" height="104" viewBox="0 0 124 104" fill="none" xmlns="http://www.w3.org/2000/svg">
<path d="M57.8499 102.6C85.8499 102.6 108.55 79.9 108.55 51.8C108.55 23.7 85.8499 1 57.8499 1C29.8499 1 7.1499 23.7 7.1499 51.8C7.1499 79.9 29.8499 102.6 57.8499 102.6Z" fill="#F1F3F9" stroke="#D6DCE8" stroke-width="2" stroke-miterlimit="10"/>
<path d="M114.35 35.8992C116.614 35.8992 118.45 34.0636 118.45 31.7992C118.45 29.5348 116.614 27.6992 114.35 27.6992C112.086 27.6992 110.25 29.5348 110.25 31.7992C110.25 34.0636 112.086 35.8992 114.35 35.8992Z" fill="#EAEEF9"/>
<path d="M120.35 19.7992C121.897 19.7992 123.15 18.5456 123.15 16.9992C123.15 15.4528 121.897 14.1992 120.35 14.1992C118.804 14.1992 117.55 15.4528 117.55 16.9992C117.55 18.5456 118.804 19.7992 120.35 19.7992Z" fill="#EAEEF9"/>
<path d="M3.6501 38.7992C5.1965 38.7992 6.4501 37.5456 6.4501 35.9992C6.4501 34.4528 5.1965 33.1992 3.6501 33.1992C2.1037 33.1992 0.850098 34.4528 0.850098 35.9992C0.850098 37.5456 2.1037 38.7992 3.6501 38.7992Z" fill="#EAEEF9"/>
<path d="M75.25 22.4434C92.5127 22.4434 106.438 34.9978 106.438 50.4317C106.438 59.3004 101.835 67.2478 94.5842 72.4308V84.0638C94.5842 85.6763 92.7429 86.4825 91.592 85.5611L81.6948 77.8442C79.6232 78.1897 77.5517 78.4201 75.3651 78.4201C58.1025 78.4201 44.1772 65.8656 44.1772 50.4317C44.1772 34.9978 58.1025 22.4434 75.25 22.4434Z" fill="#D6DCE8" stroke="#AAB2C5" stroke-width="2" stroke-miterlimit="10"/>
<path d="M44.7526 21.0605C25.5335 21.0605 9.99707 34.9971 9.99707 52.1587C9.99707 62.064 15.1759 70.9328 23.2318 76.5765V89.4765C23.2318 91.2042 25.1882 92.2408 26.5692 91.089L37.6173 82.5658C39.919 83.0265 42.2207 83.2569 44.6375 83.2569C63.8566 83.2569 79.393 69.3203 79.393 52.1587C79.393 34.9971 63.8566 21.0605 44.7526 21.0605Z" fill="white" stroke="#D6DCE8" stroke-width="2" stroke-miterlimit="10"/>
<path d="M33.4169 53.426C35.5144 53.426 37.2147 51.7243 37.2147 49.6251C37.2147 47.5259 35.5144 45.8242 33.4169 45.8242C31.3195 45.8242 29.6191 47.5259 29.6191 49.6251C29.6191 51.7243 31.3195 53.426 33.4169 53.426Z" fill="#AAB2C5"/>
<path d="M54.9379 53.426C57.0354 53.426 58.7357 51.7243 58.7357 49.6251C58.7357 47.5259 57.0354 45.8242 54.9379 45.8242C52.8405 45.8242 51.1401 47.5259 51.1401 49.6251C51.1401 51.7243 52.8405 53.426 54.9379 53.426Z" fill="#AAB2C5"/>
<path d="M48.9535 65.5191C48.6083 65.5191 48.263 65.4039 48.0328 65.0584C47.1122 63.7915 45.7311 63.1004 44.12 63.1004C42.6239 63.1004 41.1278 63.7915 40.3222 65.0584C39.9769 65.6343 39.2864 65.7495 38.711 65.2888C38.1356 64.9432 38.0205 64.2522 38.4808 63.6763C39.7468 61.8334 41.9334 60.6816 44.235 60.6816C46.5367 60.6816 48.6083 61.8334 49.9893 63.6763C50.3345 64.2522 50.2194 64.9432 49.7591 65.2888C49.4138 65.5191 49.1837 65.5191 48.9535 65.5191Z" fill="#AAB2C5"/>
<path d="M36.1916 18.1374C36.0528 18.1374 35.914 18.1374 35.7753 18.1374C35.0815 17.8596 34.6652 17.1653 34.8039 16.4709L37.1629 8.83272C37.4404 8.13834 38.1342 7.72172 38.828 7.86059C39.5219 8.13834 39.9381 8.83272 39.7994 9.5271L37.5792 17.1653C37.4404 17.7208 36.8854 18.1374 36.1916 18.1374Z" fill="#AAB2C5"/>
<path d="M30.3636 19.8044C29.8086 19.8044 29.2535 19.3878 28.976 18.8323L25.3682 7.86113C25.0907 7.16676 25.5069 6.3335 26.2008 6.05575C26.8946 5.778 27.7271 6.19463 28.0047 6.889L31.6125 17.8602C31.89 18.5546 31.4737 19.3878 30.7799 19.6656C30.6412 19.8044 30.5024 19.8044 30.3636 19.8044Z" fill="#AAB2C5"/>
<path d="M24.952 22.444C24.5358 22.444 24.2582 22.3051 23.9807 22.0274L19.5403 17.7222C18.9853 17.1667 18.9853 16.3335 19.5403 15.778C20.0954 15.2225 20.9279 15.2225 21.483 15.778L25.9234 20.0831C26.4784 20.6386 26.4784 21.4719 25.9234 22.0274C25.6459 22.3051 25.2296 22.444 24.952 22.444Z" fill="#AAB2C5"/>
</svg>
