<svg width="36" height="41" viewBox="0 0 36 41" fill="none" xmlns="http://www.w3.org/2000/svg">
<path d="M30.9612 5.55636C31.054 5.7943 30.9757 6.05958 30.7755 6.22915L29.5193 7.3067C29.5513 7.5337 29.5687 7.76617 29.5687 8.00137C29.5687 8.23657 29.5513 8.46904 29.5193 8.69603L30.7755 9.77359C30.9757 9.94315 31.054 10.2084 30.9612 10.4464C30.8335 10.7718 30.6798 11.0836 30.5028 11.3845L30.3665 11.606C30.175 11.9068 29.9603 12.1912 29.7253 12.4593C29.5542 12.6562 29.2698 12.7218 29.0146 12.6452L27.3986 12.1612C27.0099 12.4429 26.5805 12.6781 26.1222 12.8558L25.7595 14.4175C25.7015 14.6663 25.4984 14.8633 25.2315 14.9043C24.8312 14.9672 24.4192 15 23.9985 15C23.5779 15 23.1659 14.9672 22.7656 14.9043C22.4987 14.8633 22.2956 14.6663 22.2376 14.4175L21.8749 12.8558C21.4166 12.6781 20.9872 12.4429 20.5985 12.1612L18.9854 12.648C18.7302 12.7246 18.4458 12.6562 18.2747 12.462C18.0397 12.194 17.825 11.9096 17.6335 11.6087L17.4972 11.3872C17.3202 11.0863 17.1665 10.7746 17.0388 10.4491C16.946 10.2112 17.0243 9.94589 17.2245 9.77632L18.4807 8.69877C18.4487 8.46904 18.4313 8.23657 18.4313 8.00137C18.4313 7.76617 18.4487 7.5337 18.4807 7.3067L17.2245 6.22915C17.0243 6.05958 16.946 5.7943 17.0388 5.55636C17.1665 5.2309 17.3202 4.91913 17.4972 4.61828L17.6335 4.39676C17.825 4.09592 18.0397 3.81149 18.2747 3.54347C18.4458 3.34655 18.7302 3.28091 18.9854 3.35749L20.6014 3.84157C20.9901 3.55988 21.4195 3.32467 21.8778 3.1469L22.2405 1.58527C22.2985 1.33639 22.5016 1.13948 22.7685 1.09846C23.1688 1.03282 23.5808 1 24.0015 1C24.4221 1 24.8341 1.03282 25.2344 1.09572C25.5013 1.13675 25.7044 1.33366 25.7624 1.58254L26.1251 3.14417C26.5834 3.32194 27.0128 3.55714 27.4015 3.83884L29.0175 3.35476C29.2727 3.27818 29.5571 3.34655 29.7282 3.54073C29.9632 3.80875 30.1779 4.09318 30.3694 4.39402L30.5057 4.61555C30.6827 4.91639 30.8364 5.22817 30.9641 5.55362L30.9612 5.55636ZM24.0015 10.1893C24.617 10.1893 25.2073 9.95878 25.6426 9.54847C26.0778 9.13815 26.3223 8.58164 26.3223 8.00137C26.3223 7.42109 26.0778 6.86459 25.6426 6.45427C25.2073 6.04395 24.617 5.81344 24.0015 5.81344C23.3859 5.81344 22.7956 6.04395 22.3603 6.45427C21.9251 6.86459 21.6806 7.42109 21.6806 8.00137C21.6806 8.58164 21.9251 9.13815 22.3603 9.54847C22.7956 9.95878 23.3859 10.1893 24.0015 10.1893Z" fill="white" stroke="#2E3038"/>
<path d="M25.9307 19.1364C26.0965 19.5612 25.9566 20.035 25.5991 20.3378L23.356 22.262C23.413 22.6673 23.444 23.0824 23.444 23.5024C23.444 23.9224 23.413 24.3376 23.356 24.7429L25.5991 26.6671C25.9566 26.9699 26.0965 27.4436 25.9307 27.8685C25.7028 28.4497 25.4282 29.0064 25.1122 29.5437L24.8687 29.9392C24.5268 30.4765 24.1434 30.9844 23.7238 31.463C23.4181 31.8146 22.9104 31.9318 22.4546 31.7951L19.569 30.9307C18.8748 31.4337 18.1081 31.8537 17.2896 32.1711L16.642 34.9598C16.5384 35.4042 16.1757 35.7558 15.6991 35.8291C14.9842 35.9414 14.2486 36 13.4974 36C12.7462 36 12.0106 35.9414 11.2957 35.8291C10.8191 35.7558 10.4564 35.4042 10.3528 34.9598L9.70526 32.1711C8.88673 31.8537 8.12001 31.4337 7.42582 30.9307L4.54544 31.8C4.08956 31.9367 3.58186 31.8146 3.27621 31.4679C2.85659 30.9893 2.47323 30.4813 2.13131 29.9441L1.88783 29.5485C1.57182 29.0113 1.29725 28.4546 1.0693 27.8734C0.903526 27.4485 1.0434 26.9748 1.40086 26.672L3.64403 24.7478C3.58704 24.3376 3.55596 23.9224 3.55596 23.5024C3.55596 23.0824 3.58704 22.6673 3.64403 22.262L1.40086 20.3378C1.0434 20.035 0.903526 19.5612 1.0693 19.1364C1.29725 18.5552 1.57182 17.9984 1.88783 17.4612L2.13131 17.0656C2.47323 16.5284 2.85659 16.0205 3.27621 15.5419C3.58186 15.1903 4.08956 15.0731 4.54544 15.2098L7.431 16.0742C8.12519 15.5712 8.89191 15.1512 9.71044 14.8338L10.358 12.0451C10.4616 11.6007 10.8243 11.2491 11.3009 11.1758C12.0158 11.0586 12.7514 11 13.5026 11C14.2538 11 14.9894 11.0586 15.7043 11.1709C16.1809 11.2442 16.5436 11.5958 16.6472 12.0402L17.2947 14.8289C18.1133 15.1463 18.88 15.5663 19.5742 16.0693L22.4597 15.2049C22.9156 15.0682 23.4233 15.1903 23.729 15.537C24.1486 16.0156 24.532 16.5235 24.8739 17.0608L25.1174 17.4563C25.4334 17.9936 25.7079 18.5503 25.9359 19.1315L25.9307 19.1364ZM13.5026 27.4095C14.6018 27.4095 15.6559 26.9978 16.4331 26.2651C17.2104 25.5324 17.647 24.5386 17.647 23.5024C17.647 22.4662 17.2104 21.4725 16.4331 20.7398C15.6559 20.0071 14.6018 19.5954 13.5026 19.5954C12.4034 19.5954 11.3493 20.0071 10.572 20.7398C9.79481 21.4725 9.35816 22.4662 9.35816 23.5024C9.35816 24.5386 9.79481 25.5324 10.572 26.2651C11.3493 26.9978 12.4034 27.4095 13.5026 27.4095Z" fill="white" stroke="#2E3038"/>
<path d="M32.9695 31.9055C33.0424 32.1094 32.9809 32.3368 32.8236 32.4821L31.8366 33.4057C31.8617 33.6003 31.8754 33.7996 31.8754 34.0012C31.8754 34.2028 31.8617 34.402 31.8366 34.5966L32.8236 35.5202C32.9809 35.6656 33.0424 35.8929 32.9695 36.0969C32.8692 36.3759 32.7484 36.6431 32.6094 36.901L32.5022 37.0908C32.3518 37.3487 32.1831 37.5925 31.9985 37.8222C31.864 37.991 31.6406 38.0473 31.44 37.9816L30.1704 37.5667C29.8649 37.8082 29.5276 38.0098 29.1674 38.1621L28.8825 39.5007C28.8369 39.714 28.6773 39.8828 28.4676 39.918C28.1531 39.9719 27.8294 40 27.4989 40C27.1683 40 26.8447 39.9719 26.5301 39.918C26.3204 39.8828 26.1608 39.714 26.1152 39.5007L25.8303 38.1621C25.4702 38.0098 25.1328 37.8082 24.8274 37.5667L23.56 37.984C23.3594 38.0496 23.136 37.991 23.0015 37.8246C22.8169 37.5948 22.6482 37.351 22.4978 37.0932L22.3906 36.9033C22.2516 36.6454 22.1308 36.3782 22.0305 36.0992C21.9576 35.8953 22.0191 35.6679 22.1764 35.5226L23.1634 34.5989C23.1383 34.402 23.1246 34.2028 23.1246 34.0012C23.1246 33.7996 23.1383 33.6003 23.1634 33.4057L22.1764 32.4821C22.0191 32.3368 21.9576 32.1094 22.0305 31.9055C22.1308 31.6265 22.2516 31.3592 22.3906 31.1014L22.4978 30.9115C22.6482 30.6536 22.8169 30.4098 23.0015 30.1801C23.136 30.0113 23.3594 29.9551 23.56 30.0207L24.8296 30.4356C25.1351 30.1942 25.4724 29.9926 25.8326 29.8402L26.1175 28.5017C26.1631 28.2883 26.3227 28.1196 26.5324 28.0844C26.8469 28.0281 27.1706 28 27.5011 28C27.8317 28 28.1553 28.0281 28.4699 28.082C28.6796 28.1172 28.8392 28.286 28.8848 28.4993L29.1697 29.8379C29.5298 29.9902 29.8672 30.1918 30.1726 30.4333L31.4423 30.0184C31.6429 29.9527 31.8663 30.0113 32.0007 30.1778C32.1854 30.4075 32.3541 30.6513 32.5045 30.9092L32.6116 31.099C32.7507 31.3569 32.8715 31.6241 32.9718 31.9031L32.9695 31.9055ZM27.5011 35.8765C27.9848 35.8765 28.4486 35.679 28.7906 35.3273C29.1326 34.9756 29.3247 34.4985 29.3247 34.0012C29.3247 33.5038 29.1326 33.0268 28.7906 32.6751C28.4486 32.3234 27.9848 32.1258 27.5011 32.1258C27.0175 32.1258 26.5537 32.3234 26.2117 32.6751C25.8697 33.0268 25.6776 33.5038 25.6776 34.0012C25.6776 34.4985 25.8697 34.9756 26.2117 35.3273C26.5537 35.679 27.0175 35.8765 27.5011 35.8765Z" fill="white" stroke="#2E3038"/>
<path d="M29.5 26C30.9587 26 32.3576 25.4205 33.3891 24.3891C34.4205 23.3576 35 21.9587 35 20.5C35 19.0413 34.4205 17.6424 33.3891 16.6109C32.3576 15.5795 30.9587 15 29.5 15C28.0413 15 26.6424 15.5795 25.6109 16.6109C24.5795 17.6424 24 19.0413 24 20.5C24 21.9587 24.5795 23.3576 25.6109 24.3891C26.6424 25.4205 28.0413 26 29.5 26ZM31.9277 19.4902L29.1777 22.2402C28.9758 22.4422 28.6492 22.4422 28.4494 22.2402L27.0744 20.8652C26.8725 20.6633 26.8725 20.3367 27.0744 20.1369C27.2764 19.9371 27.6029 19.935 27.8027 20.1369L28.8125 21.1467L31.1973 18.7598C31.3992 18.5578 31.7258 18.5578 31.9256 18.7598C32.1254 18.9617 32.1275 19.2883 31.9256 19.4881L31.9277 19.4902Z" fill="white" stroke="#2E3038"/>
</svg>
