<svg width="33" height="36" viewBox="0 0 33 36" fill="none" xmlns="http://www.w3.org/2000/svg">
<path fill-rule="evenodd" clip-rule="evenodd" d="M4.2637 5.78228C4.71658 4.43302 6.18227 3.69323 7.55423 4.12142L23.1611 8.99238C24.2558 9.33404 25 10.3374 25 11.4716L25 27.4C25 28.8359 23.8218 30 22.3684 30H2.6316C1.1782 30 0 28.8359 0 27.4V11.8C0 10.3641 1.1782 9.2 2.6316 9.2H3.11655L4.2637 5.78228ZM5.88907 9.2H15.09L6.76154 6.60066L5.88907 9.2ZM2.6316 11.8V15.7H6.57892C8.759 15.7 10.5263 17.4461 10.5263 19.6C10.5263 21.7539 8.759 23.5 6.57892 23.5H2.6316V27.4H22.3684V11.8H2.6316ZM2.6316 20.9V18.3H6.57892C7.30561 18.3 7.89471 18.882 7.89471 19.6C7.89471 20.318 7.30561 20.9 6.57892 20.9H2.6316Z" fill="white"/>
<path d="M31.9612 25.5564C32.054 25.7943 31.9757 26.0596 31.7755 26.2291L30.5193 27.3067C30.5513 27.5337 30.5687 27.7662 30.5687 28.0014C30.5687 28.2366 30.5513 28.469 30.5193 28.696L31.7755 29.7736C31.9757 29.9432 32.054 30.2084 31.9612 30.4464C31.8335 30.7718 31.6798 31.0836 31.5028 31.3845L31.3665 31.606C31.175 31.9068 30.9603 32.1912 30.7253 32.4593C30.5542 32.6562 30.2698 32.7218 30.0146 32.6452L28.3986 32.1612C28.0099 32.4429 27.5805 32.6781 27.1222 32.8558L26.7595 34.4175C26.7015 34.6663 26.4984 34.8633 26.2315 34.9043C25.8312 34.9672 25.4192 35 24.9985 35C24.5779 35 24.1659 34.9672 23.7656 34.9043C23.4987 34.8633 23.2956 34.6663 23.2376 34.4175L22.8749 32.8558C22.4166 32.6781 21.9872 32.4429 21.5985 32.1612L19.9854 32.648C19.7302 32.7246 19.4458 32.6562 19.2747 32.462C19.0397 32.194 18.825 31.9096 18.6335 31.6087L18.4972 31.3872C18.3202 31.0863 18.1665 30.7746 18.0388 30.4491C17.946 30.2112 18.0243 29.9459 18.2245 29.7763L19.4807 28.6988C19.4487 28.469 19.4313 28.2366 19.4313 28.0014C19.4313 27.7662 19.4487 27.5337 19.4807 27.3067L18.2245 26.2291C18.0243 26.0596 17.946 25.7943 18.0388 25.5564C18.1665 25.2309 18.3202 24.9191 18.4972 24.6183L18.6335 24.3968C18.825 24.0959 19.0397 23.8115 19.2747 23.5435C19.4458 23.3466 19.7302 23.2809 19.9854 23.3575L21.6014 23.8416C21.9901 23.5599 22.4195 23.3247 22.8778 23.1469L23.2405 21.5853C23.2985 21.3364 23.5016 21.1395 23.7685 21.0985C24.1688 21.0328 24.5808 21 25.0015 21C25.4221 21 25.8341 21.0328 26.2344 21.0957C26.5013 21.1367 26.7044 21.3337 26.7624 21.5825L27.1251 23.1442C27.5834 23.3219 28.0128 23.5571 28.4015 23.8388L30.0175 23.3548C30.2728 23.2782 30.5571 23.3466 30.7282 23.5407C30.9632 23.8088 31.1779 24.0932 31.3694 24.394L31.5057 24.6155C31.6827 24.9164 31.8364 25.2282 31.9641 25.5536L31.9612 25.5564ZM25.0015 30.1893C25.617 30.1893 26.2073 29.9588 26.6426 29.5485C27.0778 29.1381 27.3223 28.5816 27.3223 28.0014C27.3223 27.4211 27.0778 26.8646 26.6426 26.4543C26.2073 26.044 25.617 25.8134 25.0015 25.8134C24.3859 25.8134 23.7956 26.044 23.3603 26.4543C22.9251 26.8646 22.6806 27.4211 22.6806 28.0014C22.6806 28.5816 22.9251 29.1381 23.3603 29.5485C23.7956 29.9588 24.3859 30.1893 25.0015 30.1893Z" fill="white" stroke="#2E3038"/>
<path d="M26.2462 2.95201V2.125C26.2462 1.19077 25.4418 0.5 24.5304 0.5C23.619 0.5 22.8146 1.19076 22.8146 2.125V2.9359C22.358 3.01603 21.9162 3.1303 21.5007 3.2835C20.1771 3.76972 18.9098 4.74357 18.5885 6.3213L18.5884 6.32165C18.4182 7.16034 18.4854 7.98151 18.8642 8.72849L18.8647 8.72938C19.235 9.45608 19.8202 9.96398 20.4112 10.3221L20.4115 10.3223C21.4617 10.9577 22.8469 11.2994 23.9046 11.5603L23.9509 11.5718L23.9509 11.5718L23.958 11.5735L24.0613 11.5974C25.3205 11.9057 26.1859 12.1355 26.7287 12.4627C26.9543 12.6012 27.0175 12.6938 27.0361 12.7286C27.0441 12.7453 27.0557 12.7752 27.0617 12.8275C27.0683 12.8854 27.069 12.9801 27.0412 13.1241C26.9996 13.3329 26.863 13.5699 26.3369 13.7686L26.3362 13.7689C25.7628 13.9865 24.8545 14.0852 23.6956 13.9275C22.9717 13.8229 21.7083 13.5091 20.9603 13.2013C20.96 13.2012 20.9597 13.2011 20.9595 13.2009L20.7691 13.6633C20.1574 13.4102 19.4393 13.6668 19.1658 14.2328C18.8922 14.7988 19.1696 15.4633 19.7813 15.7164C20.8071 16.1383 22.3306 16.5074 23.2576 16.641L26.2462 2.95201ZM26.2462 2.95201L27.8738 3.22814L27.8741 3.22818C28.7761 3.38168 29.4408 4.20709 29.2569 5.12692C29.0765 6.02955 28.1631 6.5781 27.2693 6.42532C27.2692 6.4253 27.2691 6.42528 27.2689 6.42526L25.4733 6.12092C24.3488 5.96912 23.3885 6.07798 22.7462 6.31388C22.1017 6.55058 21.9844 6.81921 21.9624 6.92977L21.9621 6.93142C21.9325 7.07805 21.9328 7.17227 21.939 7.22837C21.9449 7.28143 21.957 7.3103 21.9654 7.32725L21.5176 7.54961C21.586 7.68672 21.7265 7.84141 22.0039 8.01367L26.2462 2.95201Z" fill="white" stroke="#2E3038"/>
</svg>
