<svg width="27" height="27" viewBox="0 0 27 27" fill="none" xmlns="http://www.w3.org/2000/svg">
<path d="M5.4 18V3.6C5.4 1.61437 7.01437 0 9 0H23.4C25.3856 0 27 1.61437 27 3.6V14.7094C27 15.6656 26.6231 16.5825 25.9481 17.2575L22.6575 20.5481C21.9825 21.2231 21.0656 21.6 20.1094 21.6H9C7.01437 21.6 5.4 19.9856 5.4 18ZM15.3 5.4C14.805 5.4 14.4 5.805 14.4 6.3V9H11.7C11.205 9 10.8 9.405 10.8 9.9V11.7C10.8 12.195 11.205 12.6 11.7 12.6H14.4V15.3C14.4 15.795 14.805 16.2 15.3 16.2H17.1C17.595 16.2 18 15.795 18 15.3V12.6H20.7C21.195 12.6 21.6 12.195 21.6 11.7V9.9C21.6 9.405 21.195 9 20.7 9H18V6.3C18 5.805 17.595 5.4 17.1 5.4H15.3ZM16.65 24.3C17.3981 24.3 18 24.9019 18 25.65C18 26.3981 17.3981 27 16.65 27H7.65C3.42563 27 0 23.5744 0 19.35V6.75C0 6.00187 0.601875 5.4 1.35 5.4C2.09812 5.4 2.7 6.00187 2.7 6.75V19.35C2.7 22.0837 4.91625 24.3 7.65 24.3H16.65Z" fill="white"/>
</svg>
