<svg width="28" height="23" viewBox="0 0 28 23" fill="none" xmlns="http://www.w3.org/2000/svg">
<path d="M1.4375 2C0.642383 2 0 2.67031 0 3.5V14.75V17V20.75C0 21.9922 0.96582 23 2.15625 23H20.8438C22.0342 23 23 21.9922 23 20.75V14.75V7.63437C23 6.78125 22.1285 6.24219 21.4098 6.64531L14.375 10.5969V7.63437C14.375 6.78125 13.5035 6.24219 12.7848 6.64531L5.75 10.5969V3.5C5.75 2.67031 5.10762 2 4.3125 2H1.4375Z" fill="white"/>
<path d="M17 0H27V16H23C19.6863 16 17 13.3137 17 10V0Z" fill="#2E3038"/>
<path d="M22.15 0V1.95652H20.85V0H22.15Z" fill="white"/>
<path d="M16.1654 1.76549L17.5442 3.14896L18.4635 2.22664L17.0846 0.843172L16.1654 1.76549Z" fill="white"/>
<path fill-rule="evenodd" clip-rule="evenodd" d="M17.6 6.52174C17.6 7.97114 18.3846 9.23459 19.55 9.91087V11.2391C19.55 11.5153 19.7739 11.7391 20.05 11.7391H22.95C23.2261 11.7391 23.45 11.5153 23.45 11.2391V9.91087C24.6154 9.23459 25.4 7.97114 25.4 6.52174C25.4 4.36063 23.6539 2.6087 21.5 2.6087C19.3461 2.6087 17.6 4.36063 17.6 6.52174ZM22.15 10.4348V9.04825C23.2714 8.75866 24.1 7.73729 24.1 6.52174C24.1 5.081 22.9359 3.91304 21.5 3.91304C20.0641 3.91304 18.9 5.081 18.9 6.52174C18.9 7.73729 19.7286 8.75866 20.85 9.04825V10.4348H22.15Z" fill="white"/>
<path d="M20.05 12.3913C19.7739 12.3913 19.55 12.6152 19.55 12.8913V13.1957C19.55 13.4718 19.7739 13.6957 20.05 13.6957H22.95C23.2261 13.6957 23.45 13.4718 23.45 13.1957V12.8913C23.45 12.6152 23.2261 12.3913 22.95 12.3913H20.05Z" fill="white"/>
<path d="M20.8511 15C20.671 15 20.525 14.854 20.525 14.6739C20.525 14.4938 20.671 14.3478 20.8511 14.3478H22.1489C22.329 14.3478 22.475 14.4938 22.475 14.6739C22.475 14.854 22.329 15 22.1489 15H20.8511Z" fill="white"/>
<path d="M26.05 6.52174H28V5.21739H26.05V6.52174Z" fill="white"/>
<path d="M25.4558 3.14896L26.8346 1.76549L25.9154 0.843172L24.5365 2.22664L25.4558 3.14896Z" fill="white"/>
<path d="M15 6.52174H16.95V5.21739H15V6.52174Z" fill="white"/>
</svg>
