<svg width="37" height="25" viewBox="0 0 37 25" fill="none" xmlns="http://www.w3.org/2000/svg">
<path fill-rule="evenodd" clip-rule="evenodd" d="M19.2073 22.0588C19.8079 23.7723 21.4284 25 23.3333 25C25.2382 25 26.8588 23.7723 27.4594 22.0588H30.625C31.4304 22.0588 32.0833 21.4004 32.0833 20.5882V16.1765H33.5417V13.2353H26.25V16.1765H29.1667V19.1176H27.4594C26.8588 17.4041 25.2382 16.1765 23.3333 16.1765C21.4284 16.1765 19.8079 17.4041 19.2073 19.1176H14.5833V2.94118H32.0833V1.47059C32.0833 0.658405 31.4304 0 30.625 0H13.125C12.3196 0 11.6667 0.658405 11.6667 1.47059V2.94118H6.64352C2.96419 2.94118 0 6.02369 0 9.80392V20.5882C0 21.4004 0.652918 22.0588 1.45833 22.0588H3.16561C3.76621 23.7723 5.38676 25 7.29167 25C9.19657 25 10.8171 23.7723 11.4177 22.0588H19.2073ZM11.6667 19.1176V5.88235H6.64352C4.59545 5.88235 2.91667 7.62814 2.91667 9.80392V11.7647H10.2083V14.7059H2.91667V19.1176H3.16561C3.76621 17.4041 5.38676 16.1765 7.29167 16.1765C9.19657 16.1765 10.8171 17.4041 11.4177 19.1176H11.6667ZM8.75 20.5882C8.75 21.4004 8.09708 22.0588 7.29167 22.0588C6.48625 22.0588 5.83333 21.4004 5.83333 20.5882C5.83333 19.7761 6.48625 19.1176 7.29167 19.1176C8.09708 19.1176 8.75 19.7761 8.75 20.5882ZM23.3333 22.0588C24.1387 22.0588 24.7917 21.4004 24.7917 20.5882C24.7917 19.7761 24.1387 19.1176 23.3333 19.1176C22.5279 19.1176 21.875 19.7761 21.875 20.5882C21.875 21.4004 22.5279 22.0588 23.3333 22.0588Z" fill="white"/>
<path d="M23.3333 4.41176V7.35294H35V4.41176H23.3333Z" fill="white"/>
<path d="M24.7917 11.7647V8.82353H32.0833V11.7647H24.7917Z" fill="white"/>
<path d="M22 3H35V18H30C25.5817 18 22 14.4183 22 10V3Z" fill="#2E3038"/>
<path d="M31.15 3V4.82609H29.85V3H31.15Z" fill="white"/>
<path d="M25.1654 4.64779L26.5442 5.93902L27.4635 5.0782L26.0846 3.78696L25.1654 4.64779Z" fill="white"/>
<path fill-rule="evenodd" clip-rule="evenodd" d="M26.6 9.08696C26.6 10.4397 27.3846 11.6189 28.55 12.2501V13.4565C28.55 13.7327 28.7739 13.9565 29.05 13.9565H31.95C32.2261 13.9565 32.45 13.7327 32.45 13.4565V12.2501C33.6154 11.6189 34.4 10.4397 34.4 9.08696C34.4 7.06992 32.6539 5.43478 30.5 5.43478C28.3461 5.43478 26.6 7.06992 26.6 9.08696ZM31.15 12.7391V11.445C32.2714 11.1747 33.1 10.2215 33.1 9.08696C33.1 7.74226 31.9359 6.65217 30.5 6.65217C29.0641 6.65217 27.9 7.74226 27.9 9.08696C27.9 10.2215 28.7286 11.1747 29.85 11.445V12.7391H31.15Z" fill="white"/>
<path d="M29.05 14.5652C28.7739 14.5652 28.55 14.7891 28.55 15.0652V15.2826C28.55 15.5588 28.7739 15.7826 29.05 15.7826H31.95C32.2261 15.7826 32.45 15.5588 32.45 15.2826V15.0652C32.45 14.7891 32.2261 14.5652 31.95 14.5652H29.05Z" fill="white"/>
<path d="M29.8293 17C29.6613 17 29.525 16.8637 29.525 16.6957C29.525 16.5276 29.6613 16.3913 29.8293 16.3913H31.1707C31.3387 16.3913 31.475 16.5276 31.475 16.6957C31.475 16.8637 31.3387 17 31.1707 17H29.8293Z" fill="white"/>
<path d="M35.05 9.08696H37V7.86957H35.05V9.08696Z" fill="white"/>
<path d="M34.4558 5.93902L35.8346 4.64779L34.9154 3.78696L33.5365 5.0782L34.4558 5.93902Z" fill="white"/>
<path d="M24 9.08696H25.95V7.86957H24V9.08696Z" fill="white"/>
</svg>
