<svg width="1440" height="236" viewBox="0 0 1440 236" fill="none" xmlns="http://www.w3.org/2000/svg">
<path d="M0 76L26.7 70.7C53.3 65 107 55 160 44C213.3 33 267 23 320 38.7C373.3 55 427 97 480 81.3C533.3 65 587 -8.99999 640 1.30001C693.3 12 747 108 800 150.7C853.3 193 907 183 960 161.3C1013.3 140 1067 108 1120 92C1173.3 76 1227 76 1280 92C1333.3 108 1387 140 1413 156L1440 172V236H1413.3C1386.7 236 1333 236 1280 236C1226.7 236 1173 236 1120 236C1066.7 236 1013 236 960 236C906.7 236 853 236 800 236C746.7 236 693 236 640 236C586.7 236 533 236 480 236C426.7 236 373 236 320 236C266.7 236 213 236 160 236C106.7 236 53 236 27 236H0V76Z" fill="#FCB4BC"/>
</svg>
