<?xml version="1.0" encoding="utf-8"?>
<!-- Generator: Adobe Illustrator 27.0.0, SVG Export Plug-In . SVG Version: 6.00 Build 0)  -->
<svg version="1.1" id="Layer_1" xmlns="http://www.w3.org/2000/svg" xmlns:xlink="http://www.w3.org/1999/xlink" x="0px" y="0px"
	 viewBox="0 0 2800 100" style="enable-background:new 0 0 2800 100;" xml:space="preserve">
<style type="text/css">
	.st0{fill:#F7941D;}
	.st1{fill:#FFFFFF;}
</style>
<rect x="-0.5" y="-0.5" class="st0" width="2801" height="101"/>
<g>
	<g>
		<path class="st1" d="M1019.9,56.9c0,1.4-0.2,2.7-0.7,3.9c-0.4,1.2-1.1,2.2-1.9,3.1c-0.8,0.9-1.8,1.6-2.9,2.1
			c-1.1,0.5-2.4,0.7-3.8,0.7h-2.4c-2.7,0-4.8-0.8-6.3-2.5c-1.5-1.7-2.3-4-2.3-6.9v-6.6h4.6v6.4c0,0.7,0.1,1.3,0.2,1.9
			c0.1,0.6,0.4,1.1,0.7,1.5c0.3,0.4,0.8,0.7,1.4,0.9c0.6,0.2,1.3,0.3,2.2,0.3h1.6c1,0,1.7-0.1,2.4-0.4c0.6-0.3,1.1-0.6,1.5-1
			c0.4-0.4,0.6-1,0.8-1.5c0.1-0.6,0.2-1.2,0.2-1.8v-9.8h4.6V56.9z M1011.5,46.7h-4.8v-4.4h4.8V46.7z"/>
		<path class="st1" d="M1023.5,35.7h4.6v22.2h-4.6V35.7z"/>
		<path class="st1" d="M1038.7,52.9c0.7,0,1.2-0.1,1.4-0.4c0.3-0.3,0.4-0.5,0.4-0.8c0-0.2,0-0.4-0.1-0.6c-0.1-0.2-0.2-0.7-0.4-1.3
			c-0.2-0.6-0.5-1.5-0.9-2.6c-0.4-1.1-0.9-2.6-1.6-4.5l4.4-1.8l3.6,10c0.3,0.7,0.6,1.2,0.9,1.5c0.3,0.3,0.9,0.5,1.7,0.5h0.4v5h-0.4
			c-0.8,0-1.6-0.1-2.3-0.4c-0.8-0.3-1.4-0.9-2.1-1.8c-0.5,0.8-1.1,1.4-1.9,1.7c-0.8,0.3-1.6,0.5-2.5,0.5h-7.8l-0.2-5H1038.7z"/>
		<path class="st1" d="M1048.5,57.9c-0.5,0-0.8-0.8-0.8-2.4c0-1.7,0.3-2.6,0.8-2.6h4c-0.5-0.7-0.9-1.4-1.1-2.1
			c-0.2-0.7-0.3-1.4-0.3-2.1c0-0.8,0.1-1.6,0.4-2.3c0.3-0.7,0.7-1.4,1.3-1.9c0.5-0.6,1.2-1,2-1.3c0.8-0.3,1.7-0.5,2.7-0.5
			c1,0,1.8,0.2,2.6,0.5c0.7,0.3,1.3,0.8,1.8,1.3c0.5,0.5,0.8,1.2,1.1,1.9c0.2,0.7,0.3,1.4,0.3,2.1c0,0.9-0.1,1.7-0.4,2.4
			c-0.3,0.7-0.6,1.4-1,2h4.2c0.6,0,1-0.2,1-0.7c0-0.2-0.2-0.5-0.5-0.9l-5.7-7.2l3.4-3.2l5.8,7.4c0.7,0.9,1.2,1.8,1.5,2.6
			c0.3,0.8,0.5,1.5,0.5,2.2c0,0.6-0.1,1.3-0.4,1.8c-0.2,0.6-0.6,1.1-1.1,1.5c-0.5,0.4-1,0.8-1.7,1c-0.7,0.3-1.5,0.4-2.4,0.4h-4
			c-1.1,0-2.1-0.1-3-0.2c-0.9-0.1-1.5-0.3-2-0.6c-0.3,0.2-0.8,0.4-1.3,0.5c-0.5,0.1-1,0.2-1.5,0.2c-0.5,0-1,0.1-1.5,0.1
			c-0.5,0-0.9,0-1.3,0H1048.5z M1057.3,47.5c-0.6,0-1,0.2-1.4,0.5c-0.4,0.4-0.5,0.8-0.5,1.5c0,0.5,0.2,1,0.5,1.6
			c0.3,0.5,0.8,1,1.5,1.4c0.7-0.4,1.2-0.9,1.4-1.4c0.3-0.5,0.4-1.1,0.4-1.6c0-0.6-0.2-1.1-0.5-1.5
			C1058.2,47.7,1057.8,47.5,1057.3,47.5z"/>
		<path class="st1" d="M1075.7,35.7h4.6v22.2h-4.6V35.7z"/>
		<path class="st1" d="M1088.7,60.9c-0.5,1.1-1.1,2.1-1.9,3c-0.8,0.9-1.7,1.6-2.8,2.1c-1.1,0.5-2.2,0.8-3.5,0.8h-2.4l-0.2-5h1.4
			c1,0,1.8-0.1,2.5-0.4c0.7-0.3,1.3-0.6,1.7-1c0.4-0.4,0.7-0.9,0.9-1.4c0.2-0.5,0.3-1.1,0.3-1.6V47.1h4.6v10.2
			C1089.3,58.6,1089.1,59.7,1088.7,60.9z M1089.3,43.1h-4.8v-4.4h4.8V43.1z"/>
		<path class="st1" d="M1121.1,64.3h-4.6v-28h4.6V64.3z"/>
		<path class="st1" d="M1168.5,56.9c0,1.4-0.2,2.7-0.7,3.9c-0.4,1.2-1.1,2.2-1.9,3.1c-0.8,0.9-1.8,1.6-2.9,2.1
			c-1.1,0.5-2.4,0.7-3.8,0.7h-2.4c-2.7,0-4.8-0.8-6.3-2.5c-1.5-1.7-2.3-4-2.3-6.9v-6.6h4.6v6.4c0,0.7,0.1,1.3,0.2,1.9
			c0.1,0.6,0.4,1.1,0.7,1.5c0.3,0.4,0.8,0.7,1.4,0.9c0.6,0.2,1.3,0.3,2.2,0.3h1.6c1,0,1.7-0.1,2.4-0.4c0.6-0.3,1.1-0.6,1.5-1
			c0.4-0.4,0.6-1,0.8-1.5c0.1-0.6,0.2-1.2,0.2-1.8v-9.8h4.6V56.9z M1160.1,46.7h-4.8v-4.4h4.8V46.7z"/>
		<path class="st1" d="M1172.1,35.7h4.6v22.2h-4.6V35.7z"/>
		<path class="st1" d="M1185.5,57.3c0,1.3-0.2,2.4-0.6,3.6c-0.4,1.1-1,2.1-1.8,3c-0.8,0.9-1.7,1.6-2.7,2.1c-1.1,0.5-2.2,0.8-3.5,0.8
			h-2.4l-0.2-5h1.4c1,0,1.8-0.1,2.5-0.4c0.7-0.3,1.3-0.6,1.7-1c0.4-0.4,0.7-0.9,0.9-1.4c0.2-0.5,0.3-1.1,0.3-1.6V47.1h4.6v3.8
			c0,0.7,0.2,1.2,0.6,1.5c0.4,0.3,0.9,0.5,1.6,0.5h0.4v5h-0.4c-0.4,0-0.8-0.1-1.3-0.2c-0.4-0.1-0.8-0.4-1.1-0.8V57.3z"/>
		<path class="st1" d="M1190.9,52.9v-1.6c0-0.9,0.1-1.8,0.3-2.7c0.2-0.9,0.5-1.7,1-2.4c0.5-0.7,1.1-1.3,1.9-1.8
			c0.8-0.5,1.8-0.7,3.1-0.7c0.9,0,1.7,0.2,2.4,0.5c0.7,0.3,1.3,0.7,1.8,1.2s0.8,1.1,1.1,1.8c0.2,0.7,0.4,1.5,0.4,2.3
			c0,1.2-0.2,2.3-0.7,3.2c-0.4,0.9-1,1.8-1.7,2.5c-0.7,0.7-1.5,1.2-2.4,1.7c-0.9,0.4-1.8,0.7-2.8,0.9v2.2c0,1,0.5,1.6,1.4,1.8
			l2.8-3.4c1.1-1.3,2-2.3,2.6-3c0.7-0.7,1.3-1.3,1.8-1.6c0.5-0.3,1.1-0.6,1.6-0.6s1.2-0.1,2-0.1v5c-0.5,0-1,0-1.4,0.1
			c-0.4,0-0.8,0.2-1.3,0.5c-0.5,0.3-1,0.7-1.5,1.3c-0.6,0.6-1.3,1.4-2.1,2.5l-3.4,4.4c-1,0-1.8-0.1-2.6-0.4
			c-0.8-0.3-1.5-0.7-2.1-1.2c-0.6-0.5-1-1.2-1.4-2c-0.3-0.8-0.5-1.7-0.5-2.8v-2.4h-2.6c-0.5,0-0.8-0.8-0.8-2.4
			c0-1.7,0.3-2.6,0.8-2.6H1190.9z M1195.1,53.1c1.3-0.2,2.2-0.6,2.7-1.1c0.5-0.5,0.7-1.1,0.7-1.7c0-0.5-0.1-0.9-0.4-1.3
			c-0.3-0.3-0.7-0.5-1.2-0.5c-1.2,0-1.8,0.8-1.8,2.5V53.1z"/>
		<path class="st1" d="M1210.7,52.9c1.3,0,2-0.7,2-2v-3.8h4.6v4.2c0,2.2-0.5,3.9-1.6,5c-1.1,1.1-2.6,1.6-4.6,1.6h-3.8
			c-0.5,0-0.8-0.8-0.8-2.4c0-1.7,0.3-2.6,0.8-2.6H1210.7z M1211.7,43.1h-4.4v-4.2h4.4V43.1z M1217.3,43.1h-4.4v-4.2h4.4V43.1z"/>
		<path class="st1" d="M1249.1,64.3h-4.6v-28h4.6V64.3z"/>
		<path class="st1" d="M1283.3,52.9c0.7,0,1.2-0.1,1.4-0.4c0.3-0.3,0.4-0.5,0.4-0.8c0-0.2,0-0.4-0.1-0.6c-0.1-0.2-0.2-0.7-0.4-1.3
			c-0.2-0.6-0.5-1.5-0.9-2.6c-0.4-1.1-0.9-2.6-1.6-4.5l4.4-1.8l3.6,10c0.3,0.7,0.6,1.2,0.9,1.5c0.3,0.3,0.9,0.5,1.7,0.5h0.4v5h-0.4
			c-0.8,0-1.6-0.1-2.3-0.4c-0.8-0.3-1.4-0.9-2.1-1.8c-0.5,0.8-1.1,1.4-1.9,1.7c-0.8,0.3-1.6,0.5-2.5,0.5h-7.8l-0.2-5H1283.3z"/>
		<path class="st1" d="M1295.7,52.9v-1.6c0-0.9,0.1-1.8,0.3-2.7c0.2-0.9,0.5-1.7,1-2.4c0.5-0.7,1.1-1.3,1.9-1.8
			c0.8-0.5,1.8-0.7,3.1-0.7c0.9,0,1.7,0.2,2.4,0.5c0.7,0.3,1.3,0.7,1.8,1.2s0.8,1.1,1.1,1.8c0.2,0.7,0.4,1.5,0.4,2.3
			c0,1.2-0.2,2.3-0.7,3.2c-0.4,0.9-1,1.8-1.7,2.5c-0.7,0.7-1.5,1.2-2.4,1.7c-0.9,0.4-1.8,0.7-2.8,0.9v2.2c0,1,0.5,1.6,1.4,1.8
			l2.8-3.4c1.1-1.3,2-2.3,2.6-3c0.7-0.7,1.3-1.3,1.8-1.6c0.5-0.3,1.1-0.6,1.6-0.6s1.2-0.1,2-0.1v5c-0.5,0-1,0-1.4,0.1
			c-0.4,0-0.8,0.2-1.3,0.5c-0.5,0.3-1,0.7-1.5,1.3c-0.6,0.6-1.3,1.4-2.1,2.5l-3.4,4.4c-1,0-1.8-0.1-2.6-0.4
			c-0.8-0.3-1.5-0.7-2.1-1.2c-0.6-0.5-1-1.2-1.4-2c-0.3-0.8-0.5-1.7-0.5-2.8v-2.4h-2.6c-0.5,0-0.8-0.8-0.8-2.4
			c0-1.7,0.3-2.6,0.8-2.6H1295.7z M1299.9,53.1c1.3-0.2,2.2-0.6,2.7-1.1c0.5-0.5,0.7-1.1,0.7-1.7c0-0.5-0.1-0.9-0.4-1.3
			c-0.3-0.3-0.7-0.5-1.2-0.5c-1.2,0-1.8,0.8-1.8,2.5V53.1z"/>
		<path class="st1" d="M1313.9,52.9c1.3,0,2-0.7,2-2v-3.8h4.6v3.8c0,0.7,0.2,1.2,0.6,1.5c0.4,0.3,0.9,0.5,1.6,0.5
			c0.8,0,1.4-0.2,1.7-0.5c0.3-0.3,0.5-0.8,0.5-1.5v-3.8h4.6v3.8c0,0.7,0.2,1.2,0.5,1.5c0.3,0.3,0.8,0.5,1.3,0.5c1.2,0,1.8-0.7,1.8-2
			v-3.8h4.6v3.8c0,0.7,0.2,1.2,0.6,1.5c0.4,0.3,0.9,0.5,1.6,0.5h1v5h-1c-0.9,0-1.7-0.1-2.5-0.4s-1.5-0.9-2.1-1.8
			c-0.6,0.9-1.3,1.5-2,1.8c-0.7,0.3-1.4,0.4-2,0.4c-0.8,0-1.5-0.1-2.2-0.4c-0.7-0.3-1.3-0.9-2-1.8c-0.6,0.9-1.3,1.5-2.1,1.8
			c-0.8,0.3-1.5,0.4-2.3,0.4c-0.9,0-1.7-0.1-2.5-0.4c-0.8-0.3-1.5-0.9-2.1-1.8c-0.6,0.9-1.3,1.5-2,1.8c-0.7,0.3-1.4,0.4-2.2,0.4
			h-1.8c-0.5,0-0.8-0.8-0.8-2.4c0-1.7,0.3-2.6,0.8-2.6H1313.9z M1326.5,43.1h-4.4v-4.2h4.4V43.1z M1329.3,37.5h-4.4v-4.2h4.4V37.5z
			 M1332.1,43.1h-4.4v-4.2h4.4V43.1z"/>
		<path class="st1" d="M1341.1,52.9c0.7,0,1.3-0.1,1.7-0.4c0.4-0.3,0.7-0.7,0.7-1.4v-0.4c0-1,0.1-1.8,0.4-2.6
			c0.3-0.8,0.7-1.5,1.2-2.1c0.5-0.6,1.2-1,1.9-1.4c0.8-0.3,1.6-0.5,2.6-0.5c2,0,3.5,0.6,4.6,1.9c1.1,1.3,1.6,2.9,1.6,4.9
			c0,2.2-0.6,3.9-1.7,5.2c-1.1,1.2-2.6,1.8-4.5,1.8c-0.9,0-1.8-0.2-2.7-0.6c-0.9-0.4-1.5-0.9-1.9-1.6c-0.5,0.8-1,1.4-1.8,1.7
			c-0.7,0.3-1.4,0.5-2.1,0.5h-0.2c-0.5,0-0.8-0.8-0.8-2.4c0-1.7,0.3-2.6,0.8-2.6H1341.1z M1351.5,51.1c0-0.5-0.1-1-0.4-1.4
			c-0.3-0.4-0.7-0.6-1.4-0.6s-1.2,0.2-1.4,0.6c-0.3,0.4-0.4,0.9-0.4,1.4c0,1.2,0.6,1.8,1.8,1.8C1350.9,52.9,1351.5,52.3,1351.5,51.1
			z"/>
		<path class="st1" d="M1452.5,51.1c0,1.2,0.5,1.8,1.6,1.8h1v5h-1c-1.3,0-2.3-0.2-3.1-0.6c-0.7-0.4-1.3-1.1-1.7-2
			c-0.6,0.6-1.3,1-2,1.2c-0.7,0.2-1.5,0.2-2.2,0.2c-1.7,0-3-0.5-3.9-1.6s-1.3-2.6-1.3-4.6c0-0.9,0.1-1.8,0.4-2.6
			c0.3-0.9,0.6-1.6,1.1-2.3c0.5-0.7,1.1-1.2,1.9-1.6c0.7-0.4,1.6-0.6,2.6-0.6h2.2v-2.4h4.4V51.1z M1446.1,51.9
			c0.7,0,1.2-0.2,1.6-0.5c0.3-0.3,0.5-0.8,0.5-1.4v-2.2h-1.7c-0.9,0-1.4,0.2-1.7,0.6c-0.3,0.4-0.4,1-0.4,1.6c0,0.6,0.1,1,0.4,1.3
			C1444.9,51.8,1445.4,51.9,1446.1,51.9z"/>
		<path class="st1" d="M1455.1,57.9c-0.5,0-0.8-0.8-0.8-2.4c0-1.7,0.3-2.6,0.8-2.6h8.4c1.3,0,2-0.7,2-2v-3.8h4.6v4.2
			c0,2.2-0.5,3.9-1.6,5c-1.1,1.1-2.6,1.6-4.6,1.6H1455.1z M1462.9,66.3h-4.8v-4.4h4.8V66.3z"/>
		<path class="st1" d="M1478.7,50.9c0,0.7,0.2,1.2,0.6,1.5c0.4,0.3,0.9,0.5,1.6,0.5h0.4v5h-0.4c-0.4,0-0.8-0.1-1.3-0.2
			c-0.4-0.1-0.8-0.4-1.1-0.8v0.4c0,1.3-0.2,2.4-0.6,3.6c-0.4,1.1-1,2.1-1.8,3c-0.8,0.9-1.7,1.6-2.7,2.1c-1.1,0.5-2.2,0.8-3.5,0.8h-1
			l-0.2-5h0.4c0.9,0,1.7-0.1,2.3-0.4c0.6-0.3,1.1-0.6,1.5-1c0.4-0.4,0.7-0.9,0.9-1.4c0.2-0.5,0.3-1.1,0.3-1.6V47.1h4.6V50.9z"/>
		<path class="st1" d="M1487.3,52.9v5h-6c-0.5,0-0.8-0.8-0.8-2.4c0-1.7,0.3-2.6,0.8-2.6H1487.3z"/>
		<path class="st1" d="M1493.3,52.9v5h-6c-0.5,0-0.8-0.8-0.8-2.4c0-1.7,0.3-2.6,0.8-2.6H1493.3z"/>
		<path class="st1" d="M1509.4,52.5c0.3,0.2,0.6,0.3,1,0.3c0.4,0,0.8,0,1.2,0h1.8v5h-2c-1.6,0-2.8-0.3-3.6-1
			c-0.8-0.7-1.3-1.5-1.7-2.5l-2.6,1.5c-0.7,0.4-1.4,0.7-2,1c-0.7,0.3-1.3,0.5-2.1,0.6c-0.7,0.2-1.5,0.3-2.4,0.3
			c-0.9,0.1-1.8,0.1-2.9,0.1h-1c-0.5,0-0.8-0.8-0.8-2.4c0-1.7,0.3-2.6,0.8-2.6h1.2c0.9,0,1.7,0,2.4,0c0.7,0,1.4-0.1,2-0.1
			s1.2-0.2,1.7-0.4c0.5-0.2,1-0.4,1.6-0.7l3.6-2c-0.2-0.2-0.3-0.3-0.4-0.5c-0.1-0.1-0.3-0.2-0.4-0.3c-0.2-0.1-0.4-0.1-0.6-0.2
			c-0.2,0-0.6,0-1,0h-7.4l0.2-5h8c0.7,0,1.4,0.1,2,0.3c0.7,0.2,1.3,0.6,1.9,1.2c0.6,0.6,1.1,1.4,1.6,2.4c0.5,1,0.9,2.4,1.3,4
			L1509.4,52.5z M1504.7,66.3h-4.8v-4.4h4.8V66.3z"/>
		<path class="st1" d="M1516.9,52.9c1.3,0,2-0.7,2-2v-3.8h4.6v4.2c0,2.2-0.5,3.9-1.6,5c-1.1,1.1-2.6,1.6-4.6,1.6h-3.8
			c-0.5,0-0.8-0.8-0.8-2.4c0-1.7,0.3-2.6,0.8-2.6H1516.9z M1517.9,43.1h-4.4v-4.2h4.4V43.1z M1523.5,43.1h-4.4v-4.2h4.4V43.1z"/>
		<path class="st1" d="M1539.1,57.9h-2c-0.7,0-1.4-0.1-2-0.3c-0.6-0.2-1.2-0.5-1.7-0.9c-0.5-0.4-0.9-1-1.1-1.7s-0.4-1.6-0.4-2.6
			V35.7h4.6v15.4c0,1.2,0.5,1.8,1.6,1.8h1V57.9z"/>
		<path class="st1" d="M1542.5,52.9c1.3,0,2-0.7,2-2v-3.8h4.6v4.2c0,2.2-0.5,3.9-1.6,5c-1.1,1.1-2.6,1.6-4.6,1.6h-3.8
			c-0.5,0-0.8-0.8-0.8-2.4c0-1.7,0.3-2.6,0.8-2.6H1542.5z M1543.5,43.1h-4.4v-4.2h4.4V43.1z M1549.1,43.1h-4.4v-4.2h4.4V43.1z"/>
		<path class="st1" d="M1577.3,50.9c0,0.7,0.2,1.2,0.6,1.5c0.4,0.3,0.9,0.5,1.6,0.5c0.8,0,1.4-0.2,1.7-0.5c0.3-0.3,0.5-0.8,0.5-1.5
			v-3.8h4.6v3.8c0,0.7,0.2,1.2,0.5,1.5c0.3,0.3,0.8,0.5,1.3,0.5c1.2,0,1.8-0.7,1.8-2v-3.8h4.6v3.8c0,0.7,0.2,1.2,0.6,1.5
			c0.4,0.3,0.9,0.5,1.6,0.5h1v5h-1c-0.9,0-1.7-0.1-2.5-0.4s-1.5-0.9-2.1-1.8c-0.6,0.9-1.3,1.5-2,1.8c-0.7,0.3-1.4,0.4-2,0.4
			c-0.8,0-1.5-0.1-2.2-0.4c-0.7-0.3-1.3-0.9-2-1.8c-0.6,0.9-1.3,1.5-2,1.8c-0.7,0.3-1.5,0.4-2.2,0.4c-1.1,0-2-0.3-2.6-1v0.4
			c0,1.3-0.2,2.4-0.6,3.6c-0.4,1.1-1,2.1-1.8,3c-0.8,0.9-1.7,1.6-2.8,2.1c-1.1,0.5-2.4,0.8-3.8,0.8h-2.4c-2.7,0-4.8-0.8-6.3-2.5
			c-1.5-1.7-2.3-4-2.3-6.9v-6.6h4.6v6.4c0,0.7,0.1,1.3,0.2,1.9s0.4,1.1,0.7,1.5c0.3,0.4,0.8,0.7,1.4,0.9c0.6,0.2,1.3,0.3,2.2,0.3
			h1.6c1,0,1.7-0.1,2.4-0.4c0.6-0.3,1.1-0.6,1.5-1c0.4-0.4,0.6-1,0.8-1.5c0.1-0.6,0.2-1.2,0.2-1.8v-9.8h4.6V50.9z M1583.3,43.1h-4.4
			v-4.2h4.4V43.1z M1586.1,37.5h-4.4v-4.2h4.4V37.5z M1588.9,43.1h-4.4v-4.2h4.4V43.1z"/>
		<path class="st1" d="M1601.1,52.9c1.3,0,2-0.7,2-2v-3.8h4.6v4.2c0,2.2-0.5,3.9-1.6,5c-1.1,1.1-2.6,1.6-4.6,1.6h-3.8
			c-0.5,0-0.8-0.8-0.8-2.4c0-1.7,0.3-2.6,0.8-2.6H1601.1z M1606.5,43.1h-4.8v-4.4h4.8V43.1z"/>
		<path class="st1" d="M1611.3,35.7h4.6v22.2h-4.6V35.7z"/>
		<path class="st1" d="M1632.3,48.5c0.7,0.8,1.2,1.6,1.5,2.3c0.3,0.8,0.5,1.5,0.5,2.3c0,0.6-0.1,1.3-0.4,1.8
			c-0.2,0.6-0.6,1.1-1.1,1.5c-0.5,0.4-1,0.8-1.7,1c-0.7,0.3-1.5,0.4-2.4,0.4h-9.4l-0.2-5h8.8c0.6,0,1-0.2,1-0.7
			c0-0.2-0.1-0.5-0.4-0.7l-5.8-6.6l3.6-3.4L1632.3,48.5z"/>
		<path class="st1" d="M1647,60.9c-0.5,1.1-1.1,2.1-1.9,3c-0.8,0.9-1.7,1.6-2.8,2.1c-1.1,0.5-2.2,0.8-3.5,0.8h-2.4l-0.2-5h1.4
			c1,0,1.8-0.1,2.5-0.4c0.7-0.3,1.3-0.6,1.7-1c0.4-0.4,0.7-0.9,0.9-1.4c0.2-0.5,0.3-1.1,0.3-1.6V47.1h4.6v10.2
			C1647.7,58.6,1647.4,59.7,1647,60.9z M1647.7,43.1h-4.8v-4.4h4.8V43.1z"/>
		<path class="st1" d="M1651.3,35.7h4.6v22.2h-4.6V35.7z"/>
		<path class="st1" d="M1667.7,49.1c-0.9,0-1.6-0.3-2.2-0.8c-0.5-0.5-0.8-1.4-0.8-2.6c0-1.4,0.1-2.6,0.2-3.6
			c0.1-0.9,0.4-1.7,0.8-2.3s1-1,1.7-1.2c0.7-0.3,1.7-0.4,2.9-0.5v2.6c-0.6,0.1-1.1,0.2-1.4,0.3c-0.3,0.1-0.6,0.2-0.8,0.4
			c-0.2,0.2-0.3,0.4-0.3,0.7c0,0.3-0.1,0.6-0.1,1.1c0.9,0,1.6,0.2,2.2,0.7s0.8,1.2,0.8,2.3c0,1-0.3,1.8-0.8,2.3
			C1669.3,48.9,1668.6,49.1,1667.7,49.1z M1667.7,57.9c-0.9,0-1.6-0.2-2.2-0.7c-0.5-0.5-0.8-1.2-0.8-2.3c0-1,0.3-1.8,0.8-2.3
			c0.5-0.5,1.3-0.7,2.2-0.7c0.9,0,1.6,0.2,2.2,0.7s0.8,1.2,0.8,2.3c0,1-0.3,1.8-0.8,2.3C1669.3,57.7,1668.6,57.9,1667.7,57.9z"/>
		<path class="st1" d="M1685.5,61.7c1.9,0,3.3-0.2,4.2-0.7c0.9-0.5,1.4-1.1,1.4-1.9s-0.4-1.2-1.2-1.2h-6.2v-7.4c0-1,0.1-1.8,0.4-2.6
			c0.3-0.8,0.7-1.5,1.3-2.1c0.5-0.6,1.2-1,2-1.4c0.8-0.3,1.7-0.5,2.7-0.5h4.2l0.2,5h-4.4c-1.2,0-1.8,0.6-1.8,1.8v2.2h2.4
			c1.9,0,3.2,0.5,3.9,1.4c0.7,0.9,1.1,2.3,1.1,4c0,1.2-0.2,2.3-0.7,3.3c-0.5,1-1.1,1.9-2,2.7c-0.8,0.7-1.9,1.3-3,1.8
			c-1.2,0.4-2.5,0.6-3.9,0.6h-3.2c-2.7,0-4.8-0.8-6.3-2.5c-1.5-1.7-2.3-4-2.3-6.9v-6.6h4.6v6.4c0,0.7,0.1,1.3,0.2,1.9
			s0.4,1.1,0.7,1.5c0.3,0.4,0.8,0.7,1.4,0.9c0.6,0.2,1.3,0.3,2.2,0.3H1685.5z"/>
		<path class="st1" d="M1694.3,61.7h0.4c0.9,0,1.7-0.1,2.3-0.4c0.6-0.3,1.1-0.6,1.5-1c0.4-0.4,0.7-0.9,0.9-1.4
			c0.2-0.5,0.3-1.1,0.3-1.6V47.1h4.6v10.2c0,1.3-0.2,2.4-0.7,3.6c-0.5,1.1-1.1,2.1-1.9,3c-0.8,0.9-1.7,1.6-2.8,2.1
			c-1.1,0.5-2.2,0.8-3.5,0.8h-1L1694.3,61.7z"/>
		<path class="st1" d="M1711.1,61.7c0.8,0,1.5-0.1,2.1-0.3s1-0.5,1.4-0.8c0.4-0.3,0.6-0.7,0.8-1.2c0.2-0.5,0.3-1,0.4-1.5h-1.7
			c-1.3,0-2.3-0.1-3.1-0.4c-0.8-0.3-1.4-0.7-1.9-1.2s-0.8-1.2-1-1.9s-0.3-1.6-0.3-2.7c0-1,0.1-1.9,0.4-2.7c0.3-0.8,0.7-1.6,1.2-2.2
			c0.5-0.6,1.2-1.1,2-1.5c0.8-0.4,1.7-0.6,2.7-0.6c0.8,0,1.6,0.1,2.4,0.4c0.7,0.3,1.4,0.7,2,1.3c0.6,0.6,1,1.3,1.3,2.3
			c0.3,0.9,0.5,2.1,0.5,3.4v5.2c0,1.3-0.2,2.4-0.6,3.6c-0.4,1.1-1,2.1-1.8,3c-0.8,0.9-1.7,1.6-2.8,2.1c-1.1,0.5-2.4,0.8-3.8,0.8
			h-3.6l-0.2-5H1711.1z M1712.3,51.3c0,0.6,0.1,1,0.4,1.2c0.3,0.2,0.7,0.3,1.4,0.3h1.8v-1c0-0.9-0.2-1.5-0.5-1.9
			c-0.3-0.3-0.8-0.5-1.4-0.5C1712.9,49.5,1712.3,50.1,1712.3,51.3z"/>
		<path class="st1" d="M1724,37.5c-0.5,0-0.9,0.1-1.1,0.2c-0.2,0.1-0.5,0.4-0.7,0.8l-0.8,1.7l-2.8-1.4l1.2-2.8
			c0.2-0.5,0.5-0.9,0.7-1.3c0.2-0.4,0.5-0.6,0.8-0.9c0.3-0.2,0.6-0.4,1-0.5c0.4-0.1,0.9-0.2,1.5-0.2h7.8l-0.2,4.2H1724z
			 M1723.9,41.1h4.6v16.8h-4.6V41.1z"/>
		<path class="st1" d="M1735.7,61.7c0.8,0,1.5-0.1,2.1-0.3s1-0.5,1.4-0.8c0.4-0.3,0.6-0.7,0.8-1.2c0.2-0.5,0.3-1,0.4-1.5h-1.7
			c-1.3,0-2.3-0.1-3.1-0.4c-0.8-0.3-1.4-0.7-1.9-1.2s-0.8-1.2-1-1.9s-0.3-1.6-0.3-2.7c0-1,0.1-1.9,0.4-2.7c0.3-0.8,0.7-1.6,1.2-2.2
			c0.5-0.6,1.2-1.1,2-1.5c0.8-0.4,1.7-0.6,2.7-0.6c0.8,0,1.6,0.1,2.4,0.4c0.7,0.3,1.4,0.7,2,1.3c0.6,0.6,1,1.3,1.3,2.3
			c0.3,0.9,0.5,2.1,0.5,3.4v0.8h2.6v5h-2.6c-0.1,1.2-0.3,2.3-0.7,3.4c-0.4,1.1-1,2-1.8,2.8s-1.7,1.4-2.8,1.9
			c-1.1,0.5-2.3,0.7-3.6,0.7h-3.6l-0.2-5H1735.7z M1736.9,51.3c0,0.6,0.1,1,0.4,1.2c0.3,0.2,0.7,0.3,1.4,0.3h1.8v-1
			c0-0.9-0.2-1.5-0.5-1.9c-0.3-0.3-0.8-0.5-1.4-0.5C1737.5,49.5,1736.9,50.1,1736.9,51.3z"/>
		<path class="st1" d="M1753.5,52.9v5h-6c-0.5,0-0.8-0.8-0.8-2.4c0-1.7,0.3-2.6,0.8-2.6H1753.5z"/>
		<path class="st1" d="M1759.5,52.9v5h-6c-0.5,0-0.8-0.8-0.8-2.4c0-1.7,0.3-2.6,0.8-2.6H1759.5z"/>
		<path class="st1" d="M1762.9,52.9c1.3,0,2-0.7,2-2v-3.8h4.6v4.2c0,2.2-0.5,3.9-1.6,5c-1.1,1.1-2.6,1.6-4.6,1.6h-3.8
			c-0.5,0-0.8-0.8-0.8-2.4c0-1.7,0.3-2.6,0.8-2.6H1762.9z M1768.3,43.1h-4.8v-4.4h4.8V43.1z"/>
		<path class="st1" d="M1799.9,57.9c-0.4,0-0.8-0.1-1.3-0.2c-0.4-0.1-0.8-0.4-1.1-0.8v0.2c0,1.4-0.2,2.6-0.6,3.8
			c-0.4,1.2-1,2.2-1.8,3c-0.8,0.9-1.7,1.5-2.8,2s-2.4,0.7-3.7,0.7h-2.4c-2.7,0-4.8-0.8-6.3-2.5c-1.5-1.7-2.3-4-2.3-6.9v-6.6h4.6v6.4
			c0,0.7,0.1,1.3,0.2,1.9s0.4,1.1,0.7,1.5c0.3,0.4,0.8,0.7,1.4,0.9c0.6,0.2,1.3,0.3,2.2,0.3h1.6c1,0,1.7-0.1,2.4-0.4
			c0.6-0.3,1.1-0.6,1.5-1c0.4-0.4,0.6-1,0.8-1.5c0.1-0.6,0.2-1.2,0.2-1.8V35.7h4.6v15.2c0,0.7,0.2,1.2,0.6,1.5
			c0.4,0.3,0.9,0.5,1.6,0.5h0.4v5H1799.9z"/>
		<path class="st1" d="M1803.7,52.9c1.3,0,2-0.7,2-2v-3.8h4.6v4.2c0,2.2-0.5,3.9-1.6,5c-1.1,1.1-2.6,1.6-4.6,1.6h-3.8
			c-0.5,0-0.8-0.8-0.8-2.4c0-1.7,0.3-2.6,0.8-2.6H1803.7z M1804.5,66.1h-4.4v-4.2h4.4V66.1z M1807.3,71.7h-4.4v-4.2h4.4V71.7z
			 M1810.1,66.1h-4.4v-4.2h4.4V66.1z"/>
	</g>
</g>
</svg>
