<svg width="138" height="35" viewBox="0 0 138 35" fill="none" xmlns="http://www.w3.org/2000/svg">
<path fill-rule="evenodd" clip-rule="evenodd" d="M78.8604 14.4118C78.4509 14.4118 78.1564 14.6987 78.1564 15.0981V19.902C78.1564 20.8373 77.708 21.2745 76.7486 21.2745H70.413V16.1275C70.413 13.2209 68.1148 10.9804 65.1334 10.9804H60.5578C60.1317 10.9804 59.4068 10.9919 59.1499 11.3236L57.742 13.3824C57.4711 13.7318 57.6448 14.4118 58.094 14.4118H65.1334C66.0929 14.4118 66.8933 15.1921 66.8933 16.1275V21.2745H52.1104C51.7003 21.2745 51.4065 21.5612 51.4065 21.9608V24.0196C51.4065 24.4194 51.7003 24.7059 52.1104 24.7059H54.9262C54.9262 25.6413 53.7739 26.7647 52.8144 26.7647H46.4788C45.5195 26.7647 45.071 26.3276 45.071 25.3922V18.5295C45.071 18.1302 44.7767 17.8432 44.367 17.8432H42.2552C41.8455 17.8432 41.5512 18.1302 41.5512 18.5295V25.3922C41.5512 28.4804 43.3111 30.1961 46.4788 30.1961H52.8144C55.7958 30.1961 58.4459 27.6125 58.4459 24.7059H69.7091C70.1181 24.7059 70.413 24.4182 70.413 24.0196V23.3334L71.1813 24.2868C71.4384 24.6183 71.7466 24.7059 72.1729 24.7059H76.7486C79.7299 24.7059 81.6762 22.8086 81.6762 19.902V15.0981C81.6762 14.6987 81.3819 14.4118 80.9722 14.4118H78.8604ZM73.9328 26.7647C73.5227 26.7647 73.2288 27.0514 73.2288 27.451V29.5098C73.2288 29.9096 73.5227 30.1961 73.9328 30.1961H79.5643C79.9744 30.1961 80.2683 29.9096 80.2683 29.5098V27.451C80.2683 27.0514 79.9744 26.7647 79.5643 26.7647H73.9328ZM61.2617 26.7647C60.8518 26.7647 60.5578 27.0514 60.5578 27.451V29.5098C60.5578 29.9096 60.8518 30.1961 61.2617 30.1961H63.7255C64.1355 30.1961 64.4295 29.9096 64.4295 29.5098V27.451C64.4295 27.0514 64.1355 26.7647 63.7255 26.7647H61.2617ZM84.492 10.9804C84.0824 10.9804 83.788 11.2673 83.788 11.6667V13.7255C83.788 14.1248 84.0824 14.4118 84.492 14.4118H90.8275C91.7871 14.4118 92.2354 14.8489 92.2354 15.7844V19.902C92.2354 20.8373 91.7871 21.2745 90.8275 21.2745H84.492C84.0824 21.2745 83.788 21.5613 83.788 21.9608V24.0196C83.788 24.419 84.0824 24.7059 84.492 24.7059H90.8275C93.8089 24.7059 95.7551 22.8086 95.7551 19.902V15.7844C95.7551 12.8778 93.8089 10.9804 90.8275 10.9804H84.492ZM29.9361 10.9804L33.4906 6.51655C33.8373 6.10788 33.5392 5.49023 32.9951 5.49023H30.2908C29.8601 5.49023 29.4517 5.67764 29.1771 6.00128L23.2486 13.3824C22.845 13.8584 22.967 14.4118 23.6006 14.4118H31.696C33.7106 14.4118 35.2157 15.8791 35.2157 17.8432V21.2745H21.1368C20.2338 21.2745 19.7289 20.8253 19.7289 19.902V8.92161C19.7289 8.52235 19.4345 8.23533 19.0249 8.23533H16.9131C16.5034 8.23533 16.2091 8.52235 16.2091 8.92161V19.902C16.2091 22.9902 18.673 24.7059 21.8407 24.7059H38.0315C38.4405 24.7059 38.7354 24.4182 38.7354 24.0196V17.8432C38.7354 13.9078 35.7325 10.9804 31.696 10.9804H29.9361ZM11.2815 8.23533C10.872 8.23533 10.5776 8.52235 10.5776 8.92161V19.902C10.5776 20.8375 10.1293 21.2745 9.16968 21.2745H1.42627C1.01659 21.2745 0.72232 21.5616 0.72232 21.9608V24.0196C0.72232 24.4192 1.01659 24.7059 1.42627 24.7059H9.16968C12.3374 24.7059 14.0973 22.9902 14.0973 19.902V8.92161C14.0973 8.52235 13.803 8.23533 13.3934 8.23533H11.2815ZM2.70588 18.3433L0.018373 8.92161C-0.092096 8.53928 0.314886 8.23533 0.72232 8.23533H2.59372C2.96783 8.23533 3.37692 8.39356 3.47843 8.74477L6.36556 18.2775C6.47519 18.657 6.22601 18.9489 5.82166 18.9489H3.52649C3.14454 18.9489 2.80935 18.7015 2.70588 18.3433Z" fill="white"/>
<path d="M124.736 0H103.948C102.924 0 102.092 0.811945 102.092 1.81054L102.102 33.1965C102.105 34.1941 102.936 35 103.957 35H124.736C132.06 35 137.999 29.2123 137.999 22.0751V12.9263C137.999 5.78768 132.06 0 124.736 0ZM130.466 16.9165C127.885 19.6654 124.172 21.3882 120.05 21.3882C115.935 21.3882 112.229 19.6724 109.649 16.9323C109.385 16.651 109.399 16.2128 109.677 15.9426L111.486 14.1792C111.785 13.8875 112.276 13.9006 112.558 14.2109C114.382 16.2198 117.048 17.4858 120.017 17.4858C123.01 17.4858 125.694 16.2011 127.52 14.1652C127.8 13.8516 128.292 13.8357 128.594 14.1307L130.439 15.9281C130.716 16.1983 130.731 16.6351 130.466 16.9165Z" fill="white"/>
</svg>
