<svg width="154" height="62" viewBox="0 0 154 62" fill="none" xmlns="http://www.w3.org/2000/svg">
<path fill-rule="evenodd" clip-rule="evenodd" d="M103 26H112V14H103C101.447 14 100 15.4507 100 17V23C100 24.5496 101.447 26 103 26ZM139 26H148V14H139C137.447 14 136 15.4507 136 17V23C136 24.5496 137.447 26 139 26ZM118 9.5V30.5C118 31.1618 117.164 32 116.5 32L113.5 32.0315C112.836 32.0315 112 31.162 112 30.5V29.5L110.639 31.1345C110.224 31.6984 109.201 32 108.5 32H103C98.174 32 94 27.8147 94 23V17C94 12.1853 98.174 8 103 8H116.5C117.163 8 118 8.83888 118 9.5ZM154 9.5V30.5C154 31.1618 153.164 32 152.5 32L149.5 32.0315C148.836 32.0315 148 31.162 148 30.5V29.5L146.639 31.1345C146.224 31.6984 145.201 32 144.5 32H139C134.174 32 130 27.8147 130 23V17C130 12.1853 134.174 8 139 8H152.5C153.163 8 154 8.83888 154 9.5ZM54 14H45C43.4468 14 42 15.4507 42 17V23C42 24.5498 43.4468 26 45 26H54V14ZM60 9.5V32.5C60 37.3147 55.826 41 51 41H46.3624C45.6723 41 45.0221 40.6772 44.6059 40.1279L41.9661 36.6424C41.5276 36.0639 41.7729 35 42.5 35H51C52.553 35 54 34.0493 54 32.5V32H45C40.1743 32 36 27.8147 36 23V17C36 12.1855 40.1743 8 45 8H50.5C51.1883 8 51.9384 8.55367 52.4243 9L54 10.5V9.5C54 8.8391 54.8378 8 55.5 8H58.5C59.1636 8 60 8.83775 60 9.5ZM6 23C6 24.5493 7.44704 26 9 26H18V14H9C7.44704 14 6 15.4507 6 17V23ZM22.5 0C23.164 0 24 0.837973 24 1.5V30.5C24 31.1618 23.164 32 22.5 32H19.5C18.8362 32 18 31.1623 18 30.5V29.5L16.4271 31.1831C16.001 31.6564 15.1792 32 14.5 32H9C4.17405 32 0 27.8147 0 23V17.0458C0 12.2311 4.17405 8 9 8H18V1.5C18 0.837973 18.8362 0 19.5 0H22.5ZM84.5 20L92.8505 9.43009C93.315 8.85402 92.9042 7.99793 92.1633 7.99793H87.3872C87.0261 7.99793 86.6842 8.1601 86.4557 8.43943L78 19V1.5C78 0.837973 77.1636 0 76.5 0H73.5C72.8362 0 72 0.837973 72 1.5V30.5C72 31.162 72.8362 32 73.5 32H76.5C77.1638 32 78 31.162 78 30.5V21L86.4602 31.5839C86.6883 31.8666 87.0324 32.0315 87.3965 32.0315H92.1676C92.9085 32.0315 93.3198 31.175 92.855 30.5991L84.5 20ZM64.5 0C63.8367 0 63 0.837973 63 1.5V4.5C63 5.16203 63.8367 6 64.5 6H67.5C68.1636 6 69 5.16203 69 4.5V1.5C69 0.837973 68.1636 0 67.5 0H64.5ZM64.5 8C63.8367 8 63 8.8382 63 9.5V30.5C63 31.1618 64.0718 32.0313 64.7352 32.0313L67.5 32C68.1636 32 69 31.1618 69 30.5V9.5C69 8.8382 68.1636 8 67.5 8H64.5ZM28.5 0C27.8364 0 27 0.837973 27 1.5V4.5C27 5.16203 27.8364 6 28.5 6H31.5C32.1636 6 33 5.16203 33 4.5V1.5C33 0.837973 32.1636 0 31.5 0H28.5ZM28.5 8C27.8364 8 27 8.8382 27 9.5V30.5C27 31.1618 27.8364 32 28.5 32H31.5C32.1636 32 33 31.1618 33 30.5V9.5C33 8.8382 32.1636 8 31.5 8H28.5ZM127 1.5V30.5C127 31.1618 126.164 32 125.5 32H122.5C121.836 32 121 31.1618 121 30.5V1.5C121 0.837973 121.836 0 122.5 0H125.5C126.164 0 127 0.837973 127 1.5Z" fill="#6D6E71"/>
<path d="M5.68097 62C4.24868 62 3.04362 61.6841 2.06581 61.0522C1.08799 60.4066 0.39939 59.5343 0 58.4354L2.43765 57.0137C3.00231 58.4835 4.11096 59.2184 5.7636 59.2184C6.56238 59.2184 7.1477 59.0742 7.51954 58.7857C7.89139 58.4973 8.07731 58.1332 8.07731 57.6937C8.07731 57.1854 7.85007 56.794 7.39559 56.5192C6.94111 56.2308 6.12856 55.9217 4.95794 55.592C4.31065 55.3997 3.75977 55.2074 3.30529 55.0151C2.86459 54.8228 2.417 54.5687 1.96252 54.2527C1.52181 53.9231 1.1844 53.511 0.950272 53.0165C0.716147 52.522 0.599084 51.9451 0.599084 51.2857C0.599084 49.9808 1.06045 48.9437 1.98318 48.1745C2.91968 47.3915 4.0421 47 5.35044 47C6.52107 47 7.54708 47.2885 8.4285 47.8654C9.32368 48.4286 10.0192 49.2184 10.515 50.2349L8.11862 51.6154C7.5402 50.3791 6.61747 49.761 5.35044 49.761C4.75824 49.761 4.28999 49.8984 3.94569 50.1731C3.61516 50.4341 3.4499 50.7775 3.4499 51.2033C3.4499 51.6566 3.63582 52.0275 4.00767 52.3159C4.39328 52.5907 5.1232 52.8929 6.19742 53.2225C6.63813 53.3599 6.96866 53.4698 7.18901 53.5522C7.42314 53.6209 7.73301 53.7376 8.11862 53.9025C8.51801 54.0536 8.821 54.1978 9.02758 54.3352C9.24793 54.4725 9.49583 54.658 9.77127 54.8915C10.0467 55.125 10.2533 55.3654 10.391 55.6126C10.5425 55.8599 10.6665 56.1621 10.7629 56.5192C10.873 56.8626 10.9281 57.2404 10.9281 57.6525C10.9281 58.9849 10.4392 60.0426 9.4614 60.8256C8.49736 61.6085 7.23721 62 5.68097 62Z" fill="#F9B617"/>
<path d="M14.4426 58.9918H20.5367V61.7115H11.5918V47.2885H20.4334V50.0082H14.4426V53.0783H19.917V55.7569H14.4426V58.9918Z" fill="#F9B617"/>
<path d="M24.3021 58.9918H29.8178V61.7115H21.4513V47.2885H24.3021V58.9918Z" fill="#F9B617"/>
<path d="M33.1933 58.9918H38.709V61.7115H30.3425V47.2885H33.1933V58.9918Z" fill="#F9B617"/>
<path d="M42.0845 58.9918H48.1787V61.7115H39.2337V47.2885H48.0754V50.0082H42.0845V53.0783H47.5589V55.7569H42.0845V58.9918Z" fill="#F9B617"/>
<path d="M57.026 61.7115L54.1132 56.7047H51.9441V61.7115H49.0933V47.2885H54.8775C56.2134 47.2885 57.3496 47.7555 58.2861 48.6896C59.2226 49.6236 59.6909 50.75 59.6909 52.0687C59.6909 52.9615 59.4361 53.7926 58.9265 54.5618C58.417 55.3173 57.7421 55.8874 56.902 56.272L60.104 61.7115H57.026ZM51.9441 49.9464V54.2115H54.8775C55.4146 54.2115 55.876 54.0055 56.2616 53.5934C56.6472 53.1676 56.8401 52.6593 56.8401 52.0687C56.8401 51.478 56.6472 50.9766 56.2616 50.5646C55.876 50.1525 55.4146 49.9464 54.8775 49.9464H51.9441Z" fill="#F9B617"/>
<path d="M74.0536 61.7115L73.1859 59.1154H67.4223L66.5547 61.7115H63.4766L68.5378 47.2885H72.0704L77.1523 61.7115H74.0536ZM68.3313 56.4574H72.2976L70.3144 50.5646L68.3313 56.4574Z" fill="#F9B617"/>
<path d="M83.7955 62C81.6195 62 79.8222 61.2788 78.4037 59.8365C76.9852 58.3942 76.2759 56.6154 76.2759 54.5C76.2759 52.3709 76.9852 50.592 78.4037 49.1635C79.8222 47.7212 81.6195 47 83.7955 47C85.1038 47 86.3089 47.3091 87.4106 47.9272C88.5262 48.5316 89.3938 49.3558 90.0135 50.3997L87.5552 51.8214C87.1972 51.1758 86.6876 50.6745 86.0265 50.3173C85.3655 49.9464 84.6218 49.761 83.7955 49.761C82.3907 49.761 81.2545 50.2005 80.3869 51.0797C79.533 51.9588 79.1061 53.0989 79.1061 54.5C79.1061 55.8874 79.533 57.0206 80.3869 57.8997C81.2545 58.7788 82.3907 59.2184 83.7955 59.2184C84.6218 59.2184 85.3655 59.0398 86.0265 58.6827C86.7014 58.3118 87.2109 57.8104 87.5552 57.1786L90.0135 58.6003C89.3938 59.6442 88.533 60.4753 87.4313 61.0934C86.3295 61.6978 85.1176 62 83.7955 62Z" fill="#F9B617"/>
<path d="M99.9055 61.7115L99.0379 59.1154H93.2743L92.4066 61.7115H89.3286L94.3898 47.2885H97.9223L103.004 61.7115H99.9055ZM94.1832 56.4574H98.1496L96.1664 50.5646L94.1832 56.4574Z" fill="#F9B617"/>
<path d="M109.056 47.2885C111.04 47.2885 112.692 47.9821 114.014 49.3695C115.35 50.7569 116.018 52.467 116.018 54.5C116.018 56.533 115.35 58.2431 114.014 59.6305C112.692 61.0179 111.04 61.7115 109.056 61.7115H103.313V47.2885H109.056ZM109.056 58.9918C110.31 58.9918 111.329 58.5797 112.114 57.7555C112.899 56.9176 113.291 55.8324 113.291 54.5C113.291 53.1676 112.899 52.0893 112.114 51.2651C111.329 50.4272 110.31 50.0082 109.056 50.0082H106.164V58.9918H109.056Z" fill="#F9B617"/>
<path d="M119.796 58.9918H125.89V61.7115H116.946V47.2885H125.787V50.0082H119.796V53.0783H125.271V55.7569H119.796V58.9918Z" fill="#F9B617"/>
<path d="M140.956 47.2885V61.7115H138.126V52.3571L134.056 59.0536H133.726L129.656 52.3777V61.7115H126.805V47.2885H129.739L133.891 54.1085L138.022 47.2885H140.956Z" fill="#F9B617"/>
<path d="M154 47.2885L149.042 56.0865V61.7115H146.212V56.0865L141.275 47.2885H144.497L147.637 53.3049L150.777 47.2885H154Z" fill="#F9B617"/>
</svg>
