<svg width="214" height="66" viewBox="0 0 214 66" fill="none" xmlns="http://www.w3.org/2000/svg">
<path fill-rule="evenodd" clip-rule="evenodd" d="M163 31H172V19H163C161.447 19 160 20.4507 160 22V28C160 29.5496 161.447 31 163 31ZM199 31H208V19H199C197.447 19 196 20.4507 196 22V28C196 29.5496 197.447 31 199 31ZM178 14.5V35.5C178 36.1618 177.164 37 176.5 37L173.5 37.0315C172.836 37.0315 172 36.162 172 35.5V34.5L170.639 36.1345C170.224 36.6984 169.201 37 168.5 37H163C158.174 37 154 32.8147 154 28V22C154 17.1853 158.174 13 163 13H176.5C177.163 13 178 13.8389 178 14.5ZM214 14.5V35.5C214 36.1618 213.164 37 212.5 37L209.5 37.0315C208.836 37.0315 208 36.162 208 35.5V34.5L206.639 36.1345C206.224 36.6984 205.201 37 204.5 37H199C194.174 37 190 32.8147 190 28V22C190 17.1853 194.174 13 199 13H212.5C213.163 13 214 13.8389 214 14.5ZM114 19H105C103.447 19 102 20.4507 102 22V28C102 29.5498 103.447 31 105 31H114V19ZM120 14.5V37.5C120 42.3147 115.826 46 111 46H106.362C105.672 46 105.022 45.6772 104.606 45.1279L101.966 41.6424C101.528 41.0639 101.773 40 102.5 40H111C112.553 40 114 39.0493 114 37.5V37H105C100.174 37 96 32.8147 96 28V22C96 17.1855 100.174 13 105 13H110.5C111.188 13 111.938 13.5537 112.424 14L114 15.5V14.5C114 13.8391 114.838 13 115.5 13H118.5C119.164 13 120 13.8377 120 14.5ZM66 28C66 29.5493 67.447 31 69 31H78V19H69C67.447 19 66 20.4507 66 22V28ZM82.5 5C83.164 5 84 5.83797 84 6.5V35.5C84 36.1618 83.164 37 82.5 37H79.5C78.8362 37 78 36.1623 78 35.5V34.5L76.4271 36.1831C76.001 36.6564 75.1792 37 74.5 37H69C64.174 37 60 32.8147 60 28V22.0458C60 17.2311 64.174 13 69 13H78V6.5C78 5.83797 78.8362 5 79.5 5H82.5ZM144.5 25L152.85 14.4301C153.315 13.854 152.904 12.9979 152.163 12.9979H147.387C147.026 12.9979 146.684 13.1601 146.456 13.4394L138 24V6.5C138 5.83797 137.164 5 136.5 5H133.5C132.836 5 132 5.83797 132 6.5V35.5C132 36.162 132.836 37 133.5 37H136.5C137.164 37 138 36.162 138 35.5V26L146.46 36.5839C146.688 36.8666 147.032 37.0315 147.397 37.0315H152.168C152.909 37.0315 153.32 36.175 152.855 35.5991L144.5 25ZM124.5 5C123.837 5 123 5.83797 123 6.5V9.5C123 10.162 123.837 11 124.5 11H127.5C128.164 11 129 10.162 129 9.5V6.5C129 5.83797 128.164 5 127.5 5H124.5ZM124.5 13C123.837 13 123 13.8382 123 14.5V35.5C123 36.1618 124.072 37.0313 124.735 37.0313L127.5 37C128.164 37 129 36.1618 129 35.5V14.5C129 13.8382 128.164 13 127.5 13H124.5ZM88.5 5C87.8364 5 87 5.83797 87 6.5V9.5C87 10.162 87.8364 11 88.5 11H91.5C92.1636 11 93 10.162 93 9.5V6.5C93 5.83797 92.1636 5 91.5 5H88.5ZM88.5 13C87.8364 13 87 13.8382 87 14.5V35.5C87 36.1618 87.8364 37 88.5 37H91.5C92.1636 37 93 36.1618 93 35.5V14.5C93 13.8382 92.1636 13 91.5 13H88.5ZM187 6.5V35.5C187 36.1618 186.164 37 185.5 37H182.5C181.836 37 181 36.1618 181 35.5V6.5C181 5.83797 181.836 5 182.5 5H185.5C186.164 5 187 5.83797 187 6.5Z" fill="#6D6E71"/>
<path d="M32.1609 0H2.63672C1.18132 0 0 1.18312 0 2.63822L0.0149642 48.372C0.0190448 49.8257 1.19832 51 2.64964 51H32.1609C42.5629 51 50.9981 42.5665 50.9981 32.1666V18.8354C50.9981 8.43348 42.5629 0 32.1609 0ZM40.2989 24.6497C36.6339 28.6553 31.3604 31.1657 25.5055 31.1657C19.6608 31.1657 14.3976 28.6655 10.7332 24.6728C10.3578 24.2628 10.3789 23.6243 10.7727 23.2307L13.3427 20.6611C13.7678 20.2361 14.4649 20.2552 14.8648 20.7073C17.4553 23.6345 21.242 25.4793 25.4593 25.4793C29.7105 25.4793 33.5224 23.6073 36.115 20.6407C36.5128 20.1838 37.2119 20.1607 37.6411 20.5904L40.2615 23.2096C40.6546 23.6033 40.6757 24.2397 40.2989 24.6497Z" fill="#6D6E71"/>
<path d="M65.6811 66C64.2488 66 63.0437 65.6841 62.0659 65.0522C61.0881 64.4066 60.3995 63.5344 60.0001 62.4355L62.4378 61.0138C63.0024 62.4835 64.1111 63.2184 65.7637 63.2184C66.5625 63.2184 67.1478 63.0742 67.5197 62.7857C67.8915 62.4973 68.0774 62.1333 68.0774 61.6937C68.0774 61.1855 67.8502 60.794 67.3957 60.5193C66.9412 60.2308 66.1287 59.9217 64.9581 59.5921C64.3108 59.3997 63.7599 59.2074 63.3054 59.0151C62.8647 58.8228 62.4171 58.5687 61.9626 58.2528C61.5219 57.9231 61.1845 57.511 60.9504 57.0165C60.7163 56.522 60.5992 55.9451 60.5992 55.2857C60.5992 53.9808 61.0606 52.9437 61.9833 52.1745C62.9198 51.3915 64.0422 51 65.3506 51C66.5212 51 67.5472 51.2885 68.4286 51.8654C69.3238 52.4286 70.0193 53.2184 70.5151 54.2349L68.1187 55.6154C67.5403 54.3791 66.6176 53.761 65.3506 53.761C64.7584 53.761 64.2901 53.8984 63.9458 54.1731C63.6153 54.4341 63.45 54.7775 63.45 55.2033C63.45 55.6566 63.6359 56.0275 64.0078 56.316C64.3934 56.5907 65.1233 56.8929 66.1975 57.2226C66.6383 57.3599 66.9688 57.4698 67.1891 57.5522C67.4233 57.6209 67.7331 57.7377 68.1187 57.9025C68.5181 58.0536 68.8211 58.1978 69.0277 58.3352C69.2481 58.4726 69.496 58.658 69.7714 58.8915C70.0468 59.125 70.2534 59.3654 70.3911 59.6127C70.5426 59.8599 70.6666 60.1621 70.763 60.5193C70.8732 60.8627 70.9282 61.2404 70.9282 61.6525C70.9282 62.9849 70.4393 64.0426 69.4615 64.8256C68.4975 65.6085 67.2373 66 65.6811 66Z" fill="#F9B617"/>
<path d="M74.4427 62.9918H80.5368V65.7116H71.5919V51.2885H80.4335V54.0083H74.4427V57.0783H79.9171V59.7569H74.4427V62.9918Z" fill="#F9B617"/>
<path d="M84.3023 62.9918H89.818V65.7116H81.4514V51.2885H84.3023V62.9918Z" fill="#F9B617"/>
<path d="M93.1935 62.9918H98.7092V65.7116H90.3426V51.2885H93.1935V62.9918Z" fill="#F9B617"/>
<path d="M102.085 62.9918H108.179V65.7116H99.2338V51.2885H108.076V54.0083H102.085V57.0783H107.559V59.7569H102.085V62.9918Z" fill="#F9B617"/>
<path d="M117.026 65.7116L114.113 60.7047H111.944V65.7116H109.093V51.2885H114.878C116.214 51.2885 117.35 51.7555 118.286 52.6896C119.223 53.6236 119.691 54.75 119.691 56.0687C119.691 56.9616 119.436 57.7926 118.927 58.5618C118.417 59.3173 117.742 59.8874 116.902 60.272L120.104 65.7116H117.026ZM111.944 53.9465V58.2116H114.878C115.415 58.2116 115.876 58.0055 116.262 57.5934C116.647 57.1676 116.84 56.6594 116.84 56.0687C116.84 55.478 116.647 54.9767 116.262 54.5646C115.876 54.1525 115.415 53.9465 114.878 53.9465H111.944Z" fill="#F9B617"/>
<path d="M134.054 65.7116L133.186 63.1154H127.422L126.555 65.7116H123.477L128.538 51.2885H132.071L137.152 65.7116H134.054ZM128.331 60.4574H132.298L130.315 54.5646L128.331 60.4574Z" fill="#F9B617"/>
<path d="M143.796 66C141.62 66 139.822 65.2789 138.404 63.8366C136.985 62.3943 136.276 60.6154 136.276 58.5C136.276 56.3709 136.985 54.5921 138.404 53.1635C139.822 51.7212 141.62 51 143.796 51C145.104 51 146.309 51.3091 147.411 51.9272C148.526 52.5316 149.394 53.3558 150.014 54.3997L147.555 55.8215C147.197 55.1758 146.688 54.6745 146.027 54.3173C145.366 53.9465 144.622 53.761 143.796 53.761C142.391 53.761 141.255 54.2006 140.387 55.0797C139.533 55.9588 139.106 57.0989 139.106 58.5C139.106 59.8874 139.533 61.0206 140.387 61.8997C141.255 62.7789 142.391 63.2184 143.796 63.2184C144.622 63.2184 145.366 63.0399 146.027 62.6827C146.701 62.3118 147.211 61.8105 147.555 61.1786L150.014 62.6003C149.394 63.6443 148.533 64.4753 147.431 65.0934C146.33 65.6978 145.118 66 143.796 66Z" fill="#F9B617"/>
<path d="M159.906 65.7116L159.038 63.1154H153.274L152.407 65.7116H149.329L154.39 51.2885H157.922L163.004 65.7116H159.906ZM154.183 60.4574H158.15L156.167 54.5646L154.183 60.4574Z" fill="#F9B617"/>
<path d="M169.057 51.2885C171.04 51.2885 172.692 51.9822 174.014 53.3695C175.35 54.7569 176.018 56.4671 176.018 58.5C176.018 60.533 175.35 62.2432 174.014 63.6305C172.692 65.0179 171.04 65.7116 169.057 65.7116H163.314V51.2885H169.057ZM169.057 62.9918C170.31 62.9918 171.329 62.5797 172.114 61.7555C172.899 60.9176 173.291 59.8324 173.291 58.5C173.291 57.1676 172.899 56.0893 172.114 55.2651C171.329 54.4272 170.31 54.0083 169.057 54.0083H166.164V62.9918H169.057Z" fill="#F9B617"/>
<path d="M179.796 62.9918H185.891V65.7116H176.946V51.2885H185.787V54.0083H179.796V57.0783H185.271V59.7569H179.796V62.9918Z" fill="#F9B617"/>
<path d="M200.956 51.2885V65.7116H198.126V56.3572L194.056 63.0536H193.726L189.656 56.3778V65.7116H186.805V51.2885H189.739L193.891 58.1085L198.023 51.2885H200.956Z" fill="#F9B617"/>
<path d="M214 51.2885L209.042 60.0866V65.7116H206.212V60.0866L201.275 51.2885H204.497L207.637 57.305L210.777 51.2885H214Z" fill="#F9B617"/>
</svg>
