<svg width="85" height="36" viewBox="0 0 85 36" fill="none" xmlns="http://www.w3.org/2000/svg">
<g clip-path="url(#clip0_2381_15057)">
<path d="M29.4705 6.24397C29.4895 6.1851 29.503 6.12461 29.511 6.06325C29.5188 5.91927 29.5176 5.77469 29.5182 5.63011C29.5182 5.26867 29.8392 5.02771 30.1258 5.03192C30.7738 5.04156 31.4219 5.03975 32.0694 5.03192C32.2276 5.033 32.3792 5.09661 32.4917 5.20916C32.6043 5.32172 32.6688 5.4743 32.6716 5.63433C32.6716 5.71084 32.6746 5.78795 32.6746 5.86505C32.6746 9.83212 32.6746 13.7988 32.6746 17.7651C32.6746 18.3289 32.618 18.8819 32.4274 19.4114C31.8131 21.1215 30.6263 22.1781 28.8671 22.5813C28.5118 22.6527 28.15 22.6852 27.7878 22.6783C27.073 22.6843 26.3582 22.6783 25.6434 22.6783H25.5005C25.381 22.6814 25.2626 22.6544 25.156 22.5999C25.0493 22.5453 24.9577 22.4648 24.8893 22.3657C24.6296 22.009 24.3622 21.6584 24.0983 21.3048C23.8636 20.9892 23.6291 20.6735 23.3949 20.3578C23.3354 20.2828 23.2833 20.2021 23.2394 20.1169C23.2091 20.0539 23.1941 19.9845 23.1957 19.9144C23.1973 19.8444 23.2154 19.7758 23.2486 19.7143C23.2818 19.6528 23.329 19.6002 23.3864 19.561C23.4437 19.5217 23.5095 19.4969 23.5783 19.4886C23.6732 19.4798 23.7685 19.4774 23.8636 19.4813H27.8081C27.9795 19.4867 28.1508 19.4697 28.3179 19.4307C28.624 19.3504 28.9002 19.1812 29.1124 18.9441C29.3246 18.7071 29.4636 18.4124 29.5122 18.0964C29.5166 18.0679 29.5192 18.0391 29.52 18.0102C29.52 17.9036 29.4771 17.8446 29.374 17.8349C29.271 17.8253 29.1834 17.8271 29.0881 17.8265C27.7181 17.8265 26.3445 17.8301 24.9728 17.8265C24.4772 17.8265 23.9816 17.7879 23.5044 17.6404C21.8839 17.1392 20.8056 16.0749 20.2695 14.4476C20.1227 13.9987 20.0481 13.5288 20.0485 13.056C20.0431 11.9584 20.0348 10.8608 20.0485 9.76325C20.0583 8.76324 20.3773 7.79141 20.9607 6.98398C21.5442 6.17656 22.3628 5.57402 23.3019 5.26084C23.7259 5.11415 24.1703 5.03687 24.6183 5.03192C25.7709 5.03192 26.9241 5.03554 28.0767 5.02831C28.1955 5.02215 28.3139 5.04654 28.4209 5.09922C28.5279 5.15189 28.62 5.23112 28.6884 5.32951C28.8814 5.59216 29.076 5.85321 29.2722 6.11265C29.3192 6.17951 29.3526 6.25963 29.4705 6.24397ZM29.4705 14.5777C29.5498 14.4476 29.5355 14.3494 29.5355 14.2548C29.5355 12.3596 29.5355 10.4647 29.5355 8.56987C29.5355 8.23554 29.517 8.21686 29.1739 8.21626C27.7443 8.21626 26.3165 8.21626 24.8905 8.21626C24.7287 8.21727 24.5676 8.23748 24.4105 8.2765C24.0738 8.35636 23.7734 8.54819 23.5574 8.82126C23.3414 9.09433 23.2223 9.43284 23.2191 9.78253C23.2114 10.8795 23.2162 11.9759 23.2191 13.0723C23.2177 13.1684 23.2271 13.2644 23.2471 13.3584C23.3229 13.7091 23.5155 14.0229 23.7926 14.2471C24.0698 14.4714 24.4147 14.5926 24.7696 14.5904C26.2453 14.5928 27.7205 14.5928 29.1953 14.5904C29.2889 14.5904 29.3824 14.5819 29.4693 14.5777H29.4705Z" fill="#6C6D70"/>
<path d="M12.6923 9.1783V16.8891C12.6923 16.9952 12.6959 17.1012 12.6893 17.2066C12.6855 17.3524 12.6316 17.4924 12.5368 17.6023C12.442 17.7123 12.3123 17.7854 12.1699 17.809C12.086 17.826 12.0006 17.8343 11.915 17.8337C11.3817 17.8337 10.8484 17.8337 10.315 17.8337C10.2201 17.8338 10.1254 17.8235 10.0327 17.803C9.89584 17.7762 9.77223 17.7027 9.68248 17.5948C9.59272 17.4869 9.54226 17.3512 9.5395 17.2102C9.53295 17.0952 9.53949 16.9795 9.53592 16.8638C9.53872 16.8158 9.53672 16.7675 9.52996 16.7199C9.52281 16.6861 9.49898 16.6307 9.48051 16.6295C9.43732 16.63 9.39547 16.6448 9.36138 16.6717C9.3209 16.7124 9.28496 16.7574 9.25418 16.806C9.09335 17.0211 8.923 17.2277 8.77469 17.453C8.59242 17.7283 8.34401 17.8385 8.02354 17.8367C6.98591 17.8319 5.9477 17.8403 4.90947 17.8331C4.07913 17.8271 3.28213 17.6663 2.54948 17.2518C1.25035 16.5175 0.458726 15.4066 0.14958 13.9385C0.0679757 13.55 0.0608243 13.1554 0.0566547 12.7608C0.0475213 11.8661 0.0475213 10.9711 0.0566547 10.0759C0.0608243 9.53673 0.10194 9.0024 0.250853 8.4777C0.49352 7.64153 0.956066 6.88767 1.58916 6.29652C2.22225 5.70537 3.00215 5.29911 3.84564 5.12107C4.16354 5.05939 4.48694 5.03153 4.81058 5.03794C6.2207 5.03794 7.63041 5.03794 9.03974 5.03794C9.13504 5.03794 9.23035 5.03794 9.32506 5.03432C9.48767 5.02348 9.52816 4.98312 9.53769 4.82589C9.54306 4.73974 9.54069 4.653 9.54069 4.56625V1.38733C9.54069 1.30119 9.54069 1.21384 9.54069 1.1277C9.54257 0.972033 9.60286 0.822908 9.70935 0.710505C9.81585 0.598102 9.9606 0.530819 10.1143 0.522276C10.1899 0.515047 10.2662 0.515045 10.3424 0.515045H11.8852C11.9614 0.515045 12.0377 0.515046 12.1133 0.521673C12.2672 0.529009 12.4126 0.595391 12.5198 0.707308C12.6271 0.819224 12.6881 0.968262 12.6905 1.12408C12.6977 1.2295 12.6941 1.33553 12.6941 1.44155L12.6923 9.1783ZM9.51626 14.5741C9.5246 14.4428 9.53534 14.3488 9.53534 14.2548C9.53534 12.3596 9.53534 10.4646 9.53534 8.56987C9.53534 8.23493 9.51864 8.21685 9.17495 8.21625C7.73744 8.21625 6.30011 8.21625 4.86299 8.21625C4.70204 8.21698 4.54186 8.23885 4.38647 8.28131C4.05368 8.37311 3.75936 8.57169 3.54775 8.84719C3.33614 9.12268 3.21869 9.46021 3.21305 9.80902C3.22317 10.8861 3.21303 11.9638 3.21601 13.0409C3.21601 13.9277 4.00049 14.5988 4.74625 14.5922C6.23062 14.5801 7.7162 14.5922 9.20057 14.5879C9.2923 14.5903 9.38581 14.5813 9.51626 14.5741Z" fill="#6C6D70"/>
<path d="M61.5258 16.5614C61.461 16.6139 61.3999 16.6709 61.3429 16.7319C61.1732 16.9518 61.0076 17.1753 60.8408 17.3982C60.8122 17.4361 60.7812 17.4747 60.7556 17.5139C60.6843 17.617 60.5883 17.7004 60.4767 17.7562C60.3651 17.812 60.2414 17.8384 60.1171 17.8331H59.9455C58.9841 17.8331 58.0221 17.8373 57.0602 17.8331C56.765 17.8347 56.47 17.816 56.1774 17.7771C55.5049 17.6841 54.8616 17.4399 54.2945 17.0626C53.1765 16.312 52.479 15.2723 52.2181 13.9416C52.1585 13.6496 52.1253 13.3528 52.1192 13.0548C52.1073 11.9705 52.1001 10.8795 52.1192 9.79216C52.1377 8.67048 52.4814 7.65361 53.1967 6.78494C53.9497 5.87108 54.9021 5.29578 56.0708 5.09819C56.296 5.06025 56.5239 5.04171 56.7522 5.04277C59.1805 5.04277 61.609 5.04277 64.0377 5.04277C64.1513 5.03761 64.2649 5.05332 64.373 5.08915C64.6059 5.18072 64.7268 5.37289 64.759 5.61988C64.7667 5.70599 64.7687 5.79253 64.765 5.87891C64.765 9.58413 64.765 13.2894 64.765 16.9946C64.765 17.062 64.765 17.1295 64.765 17.1964C64.7598 17.3469 64.7031 17.4909 64.6047 17.6039C64.5063 17.7169 64.3722 17.792 64.2253 17.8163C64.1504 17.8301 64.0745 17.8369 63.9984 17.8367C63.4464 17.8367 62.8942 17.8367 62.3418 17.8367C62.2941 17.8376 62.2463 17.8353 62.1989 17.8301C61.8117 17.7849 61.5806 17.5392 61.5585 17.1458C61.5532 17.0404 61.5585 16.9343 61.5556 16.8283C61.5508 16.7572 61.5401 16.6922 61.5258 16.5614ZM61.6062 11.4169C61.6062 10.5032 61.6062 9.58935 61.6062 8.6753C61.6062 8.21687 61.6062 8.21566 61.144 8.21566H57.0602C56.9839 8.21566 56.9077 8.21566 56.832 8.21867C55.9439 8.25843 55.2625 8.98674 55.2768 9.82108C55.2768 9.86927 55.2768 9.91747 55.2768 9.96566C55.2768 10.9373 55.2768 11.909 55.2768 12.8801C55.2723 13.0624 55.2905 13.2446 55.331 13.4223C55.518 14.1301 56.1166 14.5873 56.8457 14.5892C58.3114 14.592 59.7773 14.592 61.2434 14.5892C61.6008 14.5892 61.6044 14.5849 61.605 14.2145C61.607 13.2823 61.6074 12.3498 61.6062 11.4169Z" fill="#6C6D70"/>
<path d="M84.7241 11.4265V16.9687C84.7241 17.0651 84.7241 17.1615 84.7211 17.2572C84.7191 17.3787 84.6776 17.496 84.6031 17.5913C84.5287 17.6865 84.4253 17.7544 84.3089 17.7843C84.1987 17.8137 84.0852 17.8291 83.9712 17.8301C83.4569 17.8341 82.9427 17.8341 82.4284 17.8301C82.3144 17.831 82.2008 17.815 82.0913 17.7825C81.9753 17.751 81.8721 17.6832 81.7966 17.5887C81.721 17.4942 81.677 17.378 81.6708 17.2566C81.66 17.1422 81.6672 17.0259 81.6636 16.9102C81.6636 16.8337 81.6582 16.7566 81.6487 16.6807C81.647 16.6664 81.6413 16.6528 81.6324 16.6415C81.6235 16.6301 81.6117 16.6215 81.5983 16.6166C81.5848 16.6117 81.5703 16.6106 81.5563 16.6135C81.5422 16.6165 81.5293 16.6232 81.5189 16.6331C81.459 16.6945 81.4031 16.7597 81.3515 16.8283C81.1835 17.05 81.0126 17.2693 80.8541 17.4976C80.7842 17.6015 80.69 17.6862 80.5798 17.7442C80.4696 17.8023 80.3469 17.8318 80.2227 17.8301C80.1632 17.8301 80.1084 17.8301 80.0512 17.8301C79.0415 17.8301 78.0325 17.8349 77.0229 17.8301C76.3331 17.8259 75.6529 17.7355 75.0179 17.4494C73.5329 16.7825 72.6067 15.6422 72.2302 14.05C72.1397 13.655 72.0962 13.2506 72.1004 12.8452C72.1004 11.8922 72.1004 10.9398 72.1004 9.98736C72.1004 9.28676 72.2034 8.60182 72.4864 7.96085C73.1839 6.37892 74.374 5.41627 76.0639 5.08977C76.3553 5.04268 76.6505 5.02372 76.9454 5.03314C78.7165 5.03314 80.4876 5.03314 82.2587 5.03314H83.9438C84.039 5.03061 84.1343 5.03383 84.2291 5.04278C84.3574 5.05995 84.476 5.12102 84.5652 5.21582C84.6543 5.31062 84.7088 5.43345 84.7193 5.56386C84.7271 5.65965 84.7229 5.75603 84.7229 5.85242C84.7241 7.71105 84.7245 9.56908 84.7241 11.4265ZM81.5302 14.5729C81.6225 14.4428 81.6011 14.3139 81.6011 14.1916C81.6011 12.3345 81.6011 10.4777 81.6011 8.62109C81.6025 8.54409 81.5997 8.46707 81.5927 8.39037C81.5934 8.36843 81.5896 8.34659 81.5816 8.32621C81.5735 8.30583 81.5614 8.28735 81.546 8.27191C81.5305 8.25648 81.5121 8.24443 81.4919 8.23652C81.4717 8.2286 81.45 8.22499 81.4283 8.22591C81.3335 8.21737 81.2382 8.21396 81.143 8.21567H77.0586C76.9639 8.21567 76.868 8.21567 76.7733 8.22049C76.4432 8.24281 76.1279 8.36685 75.8696 8.57589C75.6114 8.78494 75.4226 9.06897 75.3288 9.38977C75.2729 9.60395 75.2464 9.8249 75.2502 10.0464C75.2502 10.9602 75.2502 11.8741 75.2532 12.7886C75.2541 12.9704 75.2704 13.1518 75.302 13.3307C75.4277 14.0283 76.0764 14.5837 76.7769 14.5862C78.2815 14.5916 79.7855 14.5862 81.2895 14.5862C81.3741 14.5904 81.4581 14.5783 81.5302 14.5729Z" fill="#6C6D70"/>
<path d="M43.2464 11.9464C43.2262 12.0188 43.2105 12.0924 43.1994 12.1669C43.1928 12.2632 43.1946 12.3596 43.1946 12.4554C43.1946 13.9285 43.1946 15.401 43.1946 16.8729C43.1976 17.0076 43.1923 17.1424 43.1785 17.2765C43.168 17.4025 43.1168 17.5215 43.0328 17.6152C42.9489 17.7089 42.8369 17.7721 42.7139 17.7952C42.6119 17.8188 42.5076 17.8307 42.403 17.8307C41.8792 17.8335 41.3554 17.8335 40.8317 17.8307C40.7177 17.8315 40.6042 17.8173 40.4939 17.7885C40.3767 17.7614 40.271 17.697 40.1924 17.6049C40.1137 17.5129 40.0662 17.3978 40.0567 17.2765C40.0448 17.1423 40.0412 17.0075 40.046 16.8729C40.046 12.4552 40.046 8.03754 40.046 3.61987C40.046 2.85963 40.046 2.09919 40.046 1.33855C40.046 1.24276 40.046 1.14638 40.0555 1.05059C40.0776 0.783726 40.3164 0.537943 40.5797 0.525292C40.6655 0.521075 40.7507 0.51505 40.8364 0.51505C41.3602 0.51505 41.884 0.51505 42.4078 0.51505C42.4935 0.513625 42.5792 0.517649 42.6645 0.527099C42.7939 0.538386 42.9155 0.594663 43.0086 0.686364C43.1017 0.778065 43.1605 0.899531 43.175 1.03011C43.1911 1.1638 43.1976 1.29848 43.1946 1.43312C43.1946 3.33915 43.1946 5.24477 43.1946 7.14999C43.1946 8.25682 43.1946 9.36365 43.1946 10.4705C43.1946 10.5663 43.1946 10.6632 43.2018 10.7584C43.2125 10.8081 43.2293 10.8563 43.2518 10.9018C43.2904 10.887 43.3267 10.8667 43.3596 10.8416C43.4341 10.7536 43.5032 10.6608 43.5723 10.5699C44.851 8.86866 46.1294 7.16726 47.4077 5.46565C47.7508 5.00722 47.8598 5.03493 48.2708 5.03433C49.0706 5.03433 49.8705 5.03433 50.6707 5.03433C50.766 5.03169 50.8613 5.03571 50.956 5.04638C51.0153 5.05332 51.072 5.07439 51.1216 5.10786C51.1712 5.14133 51.2123 5.18624 51.2413 5.23889C51.2704 5.29154 51.2867 5.35042 51.2889 5.41069C51.2911 5.47095 51.2791 5.53088 51.2538 5.58553C51.2088 5.68099 51.1528 5.77076 51.087 5.853C49.9934 7.30963 48.8988 8.76545 47.8032 10.2205C47.5439 10.5659 47.2846 10.9106 47.0253 11.2548C46.8913 11.4355 46.8871 11.456 47.0175 11.6307C47.4023 12.1452 47.7919 12.6548 48.1755 13.1705C49.1409 14.4596 50.1058 15.749 51.0704 17.0385C51.1182 17.0985 51.1601 17.1631 51.1955 17.2313C51.2235 17.2846 51.2391 17.3437 51.2411 17.404C51.2432 17.4644 51.2316 17.5244 51.2072 17.5795C51.1829 17.6347 51.1464 17.6834 51.1006 17.7222C51.0548 17.7609 51.0009 17.7885 50.9429 17.803C50.86 17.8245 50.7747 17.8346 50.6892 17.8331C49.8416 17.8331 48.9939 17.8331 48.1463 17.8331C48.0036 17.8388 47.8618 17.8076 47.7342 17.7426C47.6067 17.6776 47.4976 17.5808 47.4172 17.4614C46.8621 16.703 46.2974 15.9554 45.7333 15.2012C45.0717 14.3197 44.4082 13.4395 43.7426 12.5608C43.6277 12.4078 43.5204 12.2488 43.4055 12.0952C43.356 12.0419 43.3028 11.9921 43.2464 11.9464Z" fill="#6C6D70"/>
<path d="M69.996 9.17531C69.996 11.7548 69.996 14.3347 69.996 16.9151C69.996 17.0307 69.9995 17.1464 69.99 17.2615C69.9831 17.3875 69.9352 17.5078 69.8537 17.6035C69.7723 17.6993 69.6619 17.7652 69.5397 17.791C69.4285 17.8168 69.3148 17.8302 69.2008 17.8307C68.6845 17.8343 68.1701 17.8343 67.6574 17.8307C67.5529 17.8309 67.4487 17.8198 67.3465 17.7976C67.2149 17.7702 67.096 17.6994 67.0086 17.5962C66.9211 17.4931 66.8701 17.3634 66.8634 17.2277C66.8575 17.1416 66.8598 17.0548 66.8598 16.9681V1.37049C66.8598 1.28375 66.8598 1.197 66.8628 1.11025C66.8671 0.959606 66.9265 0.815927 67.0295 0.706994C67.1325 0.598061 67.2717 0.531612 67.4203 0.520495C67.4486 0.51717 67.4771 0.515358 67.5055 0.515072C68.125 0.515072 68.7439 0.51206 69.3634 0.515072C69.4678 0.514486 69.5711 0.536247 69.6666 0.578927C69.7589 0.620089 69.838 0.686502 69.8951 0.770688C69.9521 0.854873 69.9848 0.953488 69.9894 1.05543C69.9978 1.17049 69.996 1.28616 69.996 1.40182C69.9964 3.99459 69.9964 6.58575 69.996 9.17531Z" fill="#6C6D70"/>
<path d="M17.9281 11.4307C17.9281 13.2677 17.9281 15.1048 17.9281 16.9422C17.931 17.0575 17.9276 17.173 17.918 17.288C17.9098 17.4043 17.8653 17.5151 17.7911 17.6044C17.7168 17.6937 17.6165 17.7569 17.5045 17.7849C17.404 17.8142 17.3 17.8292 17.1954 17.8295C16.6432 17.8337 16.0917 17.8295 15.5395 17.8295C15.473 17.8298 15.4066 17.8239 15.3411 17.8121C15.0177 17.7518 14.8223 17.5362 14.7878 17.2042C14.7816 17.1275 14.7796 17.0505 14.7818 16.9735V5.86446C14.7724 5.72035 14.7896 5.57572 14.8324 5.43796C14.8646 5.33659 14.9233 5.24596 15.0024 5.17572C15.0815 5.10549 15.178 5.05829 15.2816 5.03916C15.3839 5.01726 15.488 5.00516 15.5925 5.00302C16.1159 4.9994 16.6395 4.9994 17.1632 5.00302C17.2678 5.00452 17.3719 5.01785 17.4736 5.04278C17.5911 5.06694 17.6978 5.12884 17.7778 5.21925C17.8577 5.30967 17.9067 5.42377 17.9173 5.54458C17.9275 5.65954 17.9311 5.77499 17.9281 5.89037C17.9285 7.73655 17.9285 9.58334 17.9281 11.4307Z" fill="#6C6D70"/>
<path d="M37.9272 11.4349V16.9223C37.9272 17.038 37.9272 17.1536 37.9194 17.2687C37.9126 17.3899 37.8673 17.5056 37.7904 17.5988C37.7135 17.692 37.609 17.7577 37.4923 17.7862C37.3817 17.8147 37.2682 17.8294 37.154 17.8301C36.6209 17.8343 36.0872 17.8301 35.5535 17.8301C35.4681 17.8265 35.3829 17.8179 35.2985 17.8042C35.0603 17.7753 34.822 17.5488 34.7911 17.2199C34.7845 17.1434 34.7881 17.0663 34.7881 16.9892C34.7881 13.2735 34.7881 9.55864 34.7881 5.84459C34.7881 5.76748 34.7845 5.68977 34.7917 5.61326C34.7997 5.47263 34.8547 5.33894 34.9478 5.23416C35.0409 5.12939 35.1665 5.05977 35.3039 5.03675C35.416 5.0153 35.5299 5.00461 35.644 5.00483C36.1206 5.00121 36.5971 5.00001 37.0736 5.00483C37.2069 5.00555 37.3398 5.01968 37.4703 5.047C37.5929 5.07169 37.7038 5.13709 37.7853 5.23281C37.8669 5.32854 37.9145 5.44908 37.9206 5.57531C37.9301 5.68977 37.9278 5.80603 37.9278 5.92169L37.9272 11.4349Z" fill="#6C6D70"/>
<path d="M36.3572 3.35844C36.0623 3.35844 35.7669 3.36205 35.472 3.35844C35.036 3.35181 34.796 3.11747 34.79 2.68554C34.7835 2.18494 34.79 1.68494 34.79 1.18434C34.7852 1.0088 34.8495 0.838495 34.9687 0.710846C35.0563 0.606836 35.1808 0.541905 35.3154 0.530123C35.372 0.525906 35.4292 0.519279 35.4863 0.518677C36.0768 0.518677 36.6671 0.518677 37.2572 0.518677C37.3144 0.518873 37.3716 0.523302 37.4282 0.53193C37.5567 0.548091 37.6759 0.608332 37.7659 0.702606C37.8558 0.79688 37.9112 0.919492 37.9226 1.05C37.9279 1.10747 37.9303 1.16518 37.9297 1.22289C37.9297 1.69398 37.9148 2.16627 37.9345 2.63735C37.9541 3.10844 37.642 3.3994 37.2197 3.36024C37.2006 3.36024 37.1816 3.36024 37.1601 3.36024H36.3602L36.3572 3.35844Z" fill="#6C6D70"/>
<path d="M16.3711 3.35843C16.0661 3.35843 15.7611 3.35 15.4568 3.35843C15.0737 3.37169 14.8242 3.11747 14.7854 2.72169C14.7819 2.67379 14.7807 2.62573 14.7819 2.57771C14.7819 2.14458 14.7819 1.71145 14.7819 1.27831C14.7774 1.15284 14.7976 1.02771 14.8414 0.910241C14.9332 0.68735 15.0916 0.551809 15.3328 0.525905C15.3996 0.518676 15.4663 0.515663 15.533 0.515061C16.0949 0.515061 16.6568 0.515061 17.2187 0.515061C17.2948 0.514716 17.3709 0.520154 17.4462 0.531327C17.5649 0.548446 17.6749 0.604124 17.7596 0.689965C17.8442 0.775806 17.899 0.887157 17.9156 1.00723C17.9248 1.07409 17.9291 1.14154 17.9287 1.20904C17.9287 1.69097 17.9162 2.17289 17.9329 2.65482C17.9484 3.10362 17.666 3.38675 17.23 3.36145C16.9453 3.34458 16.6582 3.35783 16.3729 3.35783L16.3711 3.35843Z" fill="#6C6D70"/>
<path d="M0.641602 32.9289L2.65552 31.7488C3.02006 32.6042 3.64788 33.1801 4.79987 33.1801C5.90898 33.1801 6.18594 32.7374 6.18594 32.3368C6.18594 31.7024 5.60222 31.4518 4.0702 31.0235C2.55247 30.5958 1.06449 29.8578 1.06449 27.8801C1.06449 25.888 2.72758 24.7368 4.4937 24.7368C6.17166 24.7368 7.48508 25.5488 8.22905 27.0687L6.25981 28.238C5.90957 27.5 5.42589 27.0428 4.49428 27.0428C3.7646 27.0428 3.39947 27.4115 3.39947 27.8259C3.39947 28.2982 3.64787 28.6229 5.23827 29.1102C6.78697 29.5819 8.52153 30.1283 8.52153 32.3127C8.52153 34.3048 6.9454 35.4855 4.72777 35.4855C2.58222 35.4825 1.21105 34.4494 0.641602 32.9289Z" fill="#E30828"/>
<path d="M16.7668 33.003V35.2759H10.3462V24.9452H16.6935V27.2181H12.6782V28.9301H16.3266V31.1729H12.6782V33.003H16.7668Z" fill="#E30828"/>
<path d="M24.7923 33.003V35.2759H18.8096V24.9452H21.1439V33.003H24.7923Z" fill="#E30828"/>
<path d="M32.5262 33.003V35.2759H26.5435V24.9452H28.8796V33.003H32.5262Z" fill="#E30828"/>
<path d="M40.698 33.003V35.2759H34.2769V24.9452H40.6248V27.2181H36.6118V28.9301H40.2602V31.1729H36.6118V33.003H40.698Z" fill="#E30828"/>
<path d="M46.1848 31.8813H45.0757V35.2759H42.7407V24.9452H46.8269C47.2871 24.9441 47.7431 25.0349 48.1685 25.2125C48.5939 25.3902 48.9804 25.6511 49.3058 25.9802C49.6312 26.3094 49.889 26.7003 50.0646 27.1305C50.2402 27.5608 50.3299 28.0219 50.3288 28.4873C50.3288 29.756 49.5699 30.9072 48.4465 31.4831L50.6206 35.2783H48.1111L46.1848 31.8813ZM45.0757 29.815H46.8269C47.469 29.815 47.9944 29.2397 47.9944 28.4897C47.9944 27.7397 47.469 27.1644 46.8269 27.1644H45.0757V29.815Z" fill="#E30828"/>
<path d="M64.7027 24.9452V35.2759H62.3677V31.1729H59.1577V35.2759H56.8228V24.9452H59.1577V28.9006H62.3677V24.9452H64.7027Z" fill="#E30828"/>
<path d="M67.1099 31.9404V24.9452H69.4437V31.7319C69.4437 32.5151 69.8082 33.1777 71.0483 33.1777C72.2885 33.1777 72.6536 32.5151 72.6536 31.7319V24.9452H74.9886V31.9404C74.9886 34.1542 73.2957 35.4825 71.0483 35.4825C68.8009 35.4825 67.1099 34.1542 67.1099 31.9404Z" fill="#E30828"/>
<path d="M84.9857 32.2506C84.9857 34.0801 83.512 35.2759 81.6881 35.2759H77.3994V24.9452H81.398C83.1779 24.9452 84.6229 26.1109 84.6229 27.897C84.6229 28.753 84.287 29.4313 83.7324 29.9187C84.4895 30.4066 84.9857 31.2024 84.9857 32.2506ZM79.7326 27.159V28.9892H81.3963C81.9216 28.9892 82.2862 28.6054 82.2862 28.0741C82.2862 27.5428 81.9359 27.159 81.3963 27.159H79.7326ZM82.6513 32.0735C82.6513 31.4976 82.2719 31.0843 81.6887 31.0843H79.7332V33.0621H81.6887C82.2713 33.0621 82.6507 32.6488 82.6507 32.0735H82.6513Z" fill="#E30828"/>
</g>
<defs>
<clipPath id="clip0_2381_15057">
<rect width="85" height="35" fill="white" transform="translate(0 0.5)"/>
</clipPath>
</defs>
</svg>
