<?xml version="1.0" encoding="utf-8"?>
<!-- Generator: Adobe Illustrator 24.3.0, SVG Export Plug-In . SVG Version: 6.00 Build 0)  -->
<svg version="1.1" id="Layer_1" xmlns="http://www.w3.org/2000/svg" xmlns:xlink="http://www.w3.org/1999/xlink" x="0px" y="0px"
	 viewBox="0 0 657.19 183.83" style="enable-background:new 0 0 657.19 183.83;" xml:space="preserve">
<style type="text/css">
	.st0{fill:#ED1944;}
	.st1{fill:#666666;}
</style>
<g>
	<g>
		<g>
			<path class="st0" d="M342.03,73.2h-6.47v0h-12.17c-6.69,0-12.12,5.42-12.12,12.12v8.11c0,6.69,5.42,12.12,12.12,12.12h7.71
				c0.27,0,0.53-0.11,0.72-0.3l3.73-3.73l0.01-10.59v13.03c0,0.89,0.72,1.6,1.6,1.6h4.88c0.89,0,1.6-0.72,1.6-1.6V74.81
				C343.63,73.92,342.91,73.2,342.03,73.2z M335.52,97.46h-13.75c-1.34,0-2.42-1.08-2.42-2.42V83.71c0-1.34,1.08-2.42,2.42-2.42
				h13.75V97.46z"/>
			<path class="st0" d="M293.58,73.2h-6.47v0h-12.17c-6.69,0-12.12,5.42-12.12,12.12v8.11c0,6.69,5.42,12.12,12.12,12.12h7.71
				c0.27,0,0.53-0.11,0.72-0.3l3.73-3.73l0.01-10.65v13.08c0,0.89,0.72,1.6,1.6,1.6h4.88c0.89,0,1.6-0.72,1.6-1.6V74.81
				C295.19,73.92,294.47,73.2,293.58,73.2z M287.08,97.46h-13.75c-1.34,0-2.42-1.08-2.42-2.42V83.71c0-1.34,1.08-2.42,2.42-2.42
				h13.75V97.46z"/>
			<path class="st0" d="M177.7,73.23h-4.88c-0.89,0-1.6,0.72-1.6,1.6v29.1c0,0.89,0.72,1.6,1.6,1.6h4.88c0.89,0,1.6-0.72,1.6-1.6
				v-29.1C179.3,73.95,178.58,73.23,177.7,73.23z"/>
			<path class="st0" d="M177.7,61.07h-4.88c-0.89,0-1.6,0.72-1.6,1.6v4.92c0,0.89,0.72,1.6,1.6,1.6h4.88c0.89,0,1.6-0.72,1.6-1.6
				v-4.92C179.3,61.79,178.58,61.07,177.7,61.07z"/>
			<path class="st0" d="M224.8,73.23h-4.88c-0.89,0-1.6,0.72-1.6,1.6v29.1c0,0.89,0.72,1.6,1.6,1.6h4.88c0.89,0,1.6-0.72,1.6-1.6
				v-29.1C226.41,73.95,225.69,73.23,224.8,73.23z"/>
			<path class="st0" d="M224.8,61.07h-4.88c-0.89,0-1.6,0.72-1.6,1.6v4.92c0,0.89,0.72,1.6,1.6,1.6h4.88c0.89,0,1.6-0.72,1.6-1.6
				v-4.92C226.41,61.79,225.69,61.07,224.8,61.07z"/>
			<path class="st0" d="M165.57,61.07h-4.88c-0.89,0-1.6,0.72-1.6,1.6V73.2h-12.16c-6.69,0-12.12,5.42-12.12,12.12v8.11
				c0,6.69,5.42,12.12,12.12,12.12h7.71c0.27,0,0.53-0.11,0.72-0.3l3.73-3.73l0.01-10.59v13.01c0,0.89,0.72,1.6,1.6,1.6h4.88
				c0.89,0,1.6-0.72,1.6-1.6V62.68C167.17,61.79,166.45,61.07,165.57,61.07z M159.06,97.46h-13.75c-1.34,0-2.42-1.08-2.42-2.42
				V83.71c0-1.34,1.08-2.42,2.42-2.42h13.75V97.46z"/>
			<path class="st0" d="M305.64,61.07h-4.88c-0.89,0-1.6,0.72-1.6,1.6v41.26c0,0.89,0.72,1.6,1.6,1.6h4.88c0.89,0,1.6-0.72,1.6-1.6
				V62.68C307.24,61.79,306.53,61.07,305.64,61.07z"/>
			<path class="st0" d="M212.68,73.23h-4.88c-0.89,0-1.6,0.72-1.6,1.6v13.01l-0.01-10.59l-3.73-3.73c-0.19-0.19-0.45-0.3-0.72-0.3
				h-7.71c-6.69,0-12.12,5.42-12.12,12.12v8.11c0,6.69,5.42,12.11,12.12,12.11h12.12v1.58c0,1.34-1.08,2.42-2.42,2.42h-11.33
				c-1.69,0-2.82,1.68-2.26,3.21c0.06,0.18,0.17,0.33,0.29,0.48l3.07,3.79c0.31,0.38,0.77,0.6,1.26,0.6h7.35
				c6.69,0,12.12-5.42,12.12-12.12v-1.2c0.02-0.11,0.04-0.22,0.04-0.33V74.84C214.29,73.95,213.57,73.23,212.68,73.23z
				 M192.43,97.49c-1.34,0-2.42-1.08-2.42-2.42V83.74c0-1.34,1.08-2.42,2.42-2.42h13.75v14.5l-0.01,0v1.67H192.43z"/>
			<path class="st0" d="M248.97,89.38L262.36,76c1.02-1.02,0.3-2.76-1.14-2.76l-7.17,0c-0.23,0-0.45,0.09-0.61,0.25l-10.19,10.18
				l-4.73,4.72V62.68c0-0.89-0.72-1.6-1.6-1.6h-4.88c-0.89,0-1.6,0.72-1.6,1.6v41.26c0,0.89,0.72,1.6,1.6,1.6h4.88
				c0.89,0,1.6-0.72,1.6-1.6V90.38l4.73,4.72l10.19,10.18c0.16,0.16,0.38,0.25,0.61,0.25l7.17,0c1.44,0,2.16-1.74,1.14-2.76
				L248.97,89.38z"/>
		</g>
	</g>
	<g>
		<path class="st1" d="M359.01,99.29l2.16-1.26c0.9,3.02,3.28,4.97,7.23,4.97c3.82,0,5.94-1.84,5.94-4.54
			c0-2.92-2.48-3.85-6.19-5.08c-4.1-1.37-8.06-2.45-8.06-7.09c0-4.43,3.56-6.91,7.74-6.91c4.14,0,7.02,2.45,8.31,5.44l-2.12,1.19
			c-0.94-2.27-2.88-4.17-6.19-4.17c-3.02,0-5.22,1.58-5.22,4.36c0,2.74,2.16,3.6,5.58,4.71c4.57,1.51,8.67,2.81,8.67,7.49
			c0,4.32-3.46,7.05-8.49,7.05C363.72,105.44,360.31,103.1,359.01,99.29z"/>
		<path class="st1" d="M398.43,96.09c0,0.36-0.04,0.76-0.07,1.12h-15.8c0.5,3.67,3.35,5.94,7.16,5.94c2.84,0,4.82-1.33,5.79-3.06
			l2.09,1.22c-1.51,2.45-4.28,4.14-7.92,4.14c-5.69,0-9.57-4-9.57-9.43c0-5.29,3.82-9.43,9.39-9.43
			C395.01,86.58,398.43,91.15,398.43,96.09z M382.55,94.9h13.43c-0.5-3.96-3.38-6.01-6.48-6.01
			C385.72,88.89,383.02,91.37,382.55,94.9z"/>
		<path class="st1" d="M402.21,78.74h2.38v26.28h-2.38V78.74z"/>
		<path class="st1" d="M409.63,78.74H412v26.28h-2.38V78.74z"/>
		<path class="st1" d="M434.28,96.09c0,0.36-0.04,0.76-0.07,1.12h-15.8c0.5,3.67,3.35,5.94,7.16,5.94c2.84,0,4.82-1.33,5.79-3.06
			l2.09,1.22c-1.51,2.45-4.28,4.14-7.92,4.14c-5.69,0-9.57-4-9.57-9.43c0-5.29,3.82-9.43,9.39-9.43
			C430.86,86.58,434.28,91.15,434.28,96.09z M418.41,94.9h13.43c-0.5-3.96-3.38-6.01-6.48-6.01
			C421.58,88.89,418.88,91.37,418.41,94.9z"/>
		<path class="st1" d="M446.13,86.73v2.3c-2.88,0-5.69,1.51-5.69,5.98v10.01h-2.38v-18h2.38V90
			C441.7,87.48,443.82,86.73,446.13,86.73z"/>
		<path class="st1" d="M477.45,79.82v25.2h-2.52V93.24h-13.68v11.77h-2.52v-25.2h2.52v11.05h13.68V79.82H477.45z"/>
		<path class="st1" d="M497.9,87.01v18h-2.38v-2.81c-1.4,2.27-3.49,3.24-6.05,3.24c-4.39,0-7.06-2.88-7.06-7.38V87.01h2.38v11.05
			c0,3.2,1.76,5.08,4.9,5.08c3.17,0,5.83-1.87,5.83-6.7v-9.43H497.9z"/>
		<path class="st1" d="M521.87,96.01c0,5.33-4.21,9.43-9.29,9.43c-3.2,0-5.76-1.55-7.27-3.96v3.53h-2.38v-25.2h2.38v10.73
			c1.51-2.41,4.07-3.96,7.27-3.96C517.66,86.58,521.87,90.69,521.87,96.01z M519.5,96.01c0-4-3.1-7.13-7.09-7.13
			c-4,0-7.09,3.13-7.09,7.13c0,4,3.1,7.13,7.09,7.13C516.4,103.14,519.5,100.01,519.5,96.01z"/>
	</g>
</g>
</svg>
