<svg width="68" height="54" viewBox="0 0 68 54" fill="none" xmlns="http://www.w3.org/2000/svg">
<path d="M40.6502 32.9541C40.8489 31.6798 41.0111 30.8537 41.1154 30.0317C41.3496 28.2148 41.5561 26.3819 41.8263 24.5669C41.9397 23.8253 42.1331 23.0734 42.3877 22.3757C43.2492 20.1139 45.3502 19.3935 47.3161 20.735C48.0948 21.2784 48.798 21.9848 49.3691 22.7275C50.2789 23.9097 51.1122 25.1604 51.8632 26.4574C56.405 34.2415 61.399 41.7236 66.6203 49.0366C67.0491 49.6408 67.4837 50.2672 67.792 50.9519C68.1314 51.711 67.9184 52.4327 67.3037 53.0163C66.7957 53.5114 66.1769 53.7173 65.5367 53.4791C64.9602 53.2588 64.3387 52.9564 63.9282 52.5129C63.1857 51.7463 62.558 50.8771 61.9303 50.0079C57.2351 43.3553 52.7208 36.5819 48.6504 29.5204C48.0231 28.4262 47.5187 27.2152 46.4703 26.4974C45.7218 26.7034 45.6701 27.2742 45.6149 27.7867C45.4165 29.6055 45.3316 31.4523 45.0476 33.2592C44.8851 34.3104 44.6125 35.3919 44.1398 36.339C43.3348 37.9578 41.6498 38.5992 40.0571 37.8299C38.9251 37.2889 37.8595 36.5048 36.9667 35.6139C33.2437 31.8314 30.4332 27.4307 28.5409 22.4339C27.9328 20.8252 27.3468 19.2104 26.6727 17.6199C25.9674 15.955 25.2041 14.2943 23.9644 12.9779C23.1651 13.0795 23.155 13.6744 23.1079 14.1728C22.9238 16.5442 22.8335 18.9135 22.5776 21.281C22.4226 22.7682 22.1853 24.3018 21.7176 25.7212C20.7092 28.6866 17.6924 29.967 14.9447 28.5683C13.7237 27.9572 12.6073 27.0685 11.6253 26.1074C8.94671 23.4347 6.97184 20.2485 5.3726 16.8287C3.49389 12.8346 2.23635 8.59841 1.19083 4.31574C1.06649 3.79346 0.986177 3.25909 0.963786 2.72058C0.924441 1.89073 1.42464 1.18468 2.10372 0.938545C2.79669 0.70043 3.68005 0.96642 4.04386 1.68328C4.47814 2.53466 4.844 3.44044 5.17396 4.34423C5.95719 6.57963 6.65235 8.83922 7.46572 11.0545C8.98745 15.2179 11.025 19.0973 13.9703 22.4308C14.8757 23.4603 15.7381 24.5964 17.4776 24.6623C17.7171 24.0872 18.0781 23.526 18.1519 22.9492C18.3862 21.1323 18.4988 19.3015 18.6694 17.4667C18.839 15.5373 18.9669 13.5839 19.2082 11.6585C19.3206 10.8224 19.5512 9.94196 19.9461 9.19387C20.7325 7.63942 22.5137 6.95965 24.0507 7.69692C25.0774 8.1958 26.0597 8.93184 26.8635 9.75255C28.4433 11.3779 29.5083 13.3819 30.3809 15.4624C31.2617 17.5289 32.03 19.6619 32.9027 21.7424C34.7726 26.2007 36.9882 29.4508 40.6502 32.9541Z" fill="#E6123D"/>
</svg>
