<svg width="40" height="47" viewBox="0 0 40 47" fill="none" xmlns="http://www.w3.org/2000/svg">
<path d="M24.5771 4.60778C24.3787 10.533 26.6356 14.9275 29.0165 19.248C29.8845 20.8034 31.3477 21.4947 33.1582 21.3959C34.4727 21.3219 35.7871 21.2478 37.1015 21.3219C38.54 21.4206 39.6808 22.4328 39.9536 23.6673C40.2016 24.7536 39.4328 26.3089 38.168 26.9014C37.3 27.3211 36.3079 27.8149 35.3655 27.8149C32.1166 27.8396 30.2813 29.8393 28.6692 32.2094C26.7596 34.9499 25.718 38.0606 24.8003 41.2207C24.4283 42.4798 24.1059 43.739 23.6595 44.9734C23.2378 46.1338 22.4194 46.9485 21.105 46.9979C19.8153 47.0472 18.9225 46.2325 18.3273 45.2203C17.9305 44.529 17.6824 43.7143 17.5584 42.9243C17.2608 41.1467 17.1368 39.3444 16.864 37.5422C16.1448 32.8761 11.8046 28.9012 7.16686 28.5802C5.67881 28.4815 4.19078 28.4815 2.72753 28.284C1.28907 28.0865 0.197797 26.9755 0.0241908 25.7904C-0.174216 24.4573 0.867409 22.9513 2.42987 22.4822C4.01712 22.0378 5.65402 21.8156 7.24128 21.3712C13.5903 19.643 16.9384 15.6929 17.5832 9.12572C17.7568 7.49628 17.7072 5.84218 17.8312 4.21274C17.9305 2.65736 18.6249 1.39828 19.9642 0.534179C21.849 -0.675556 24.1803 0.26257 24.5027 2.41047C24.7011 3.39801 24.5771 4.38558 24.5771 4.60778Z" fill="#0FABC6"/>
</svg>
